<?xml version="1.0" encoding="UTF-8"?>
<svg width="139px" height="100px" viewBox="0 0 139 100" version="1.1" xmlns="http://www.w3.org/2000/svg" xmlns:xlink="http://www.w3.org/1999/xlink">
    <!-- Generator: Sketch 46.2 (44496) - http://www.bohemiancoding.com/sketch -->
    <title>Group</title>
    <desc>Created with Sketch.</desc>
    <defs></defs>
    <g id="Page-1" stroke="none" stroke-width="1" fill="none" fill-rule="evenodd">
        <g id="Group" fill-rule="nonzero" fill="#FFFFFF">
            <path d="M0,8.1594032 L28.8154691,0 L48.6432561,0 L48.6432561,99.009901 L21.8174266,99.009901 L21.8174266,25.4381394 L5.21422773,29.2092922 L0,8.1594032 Z M59.2775364,8.1594032 L88.0930054,0 L107.920792,0 L107.920792,99.009901 L81.094963,99.009901 L81.094963,25.4381394 L64.4917641,29.2092922 L59.2775364,8.1594032 Z" id="11"></path>
            <path d="M80.1980198,58.0884647 L80.1980198,41.9002464 L84.6495408,41.9002464 L84.6495408,47.9623616 L90.3681195,47.9623616 L90.3681195,41.9002464 L94.8308537,41.9002464 L94.8308537,58.0884647 L90.3681195,58.0884647 L90.3681195,51.9360386 L84.6495408,51.9360386 L84.6495408,58.0884647 L80.1980198,58.0884647 Z M97.1182846,49.9943556 C97.1182846,48.8504125 97.3406716,47.7610489 97.7854526,46.726232 C98.2302328,45.6914151 98.8338549,44.797723 99.5963357,44.0451289 C100.358816,43.2925347 101.278265,42.6942314 102.354709,42.2502009 C103.431153,41.8061704 104.578595,41.5841584 105.797069,41.5841584 C107.015544,41.5841584 108.161116,41.8042889 109.233823,42.2445565 C110.306529,42.684824 111.222239,43.2793645 111.980983,44.0281956 C112.739727,44.7770267 113.337742,45.6688374 113.775047,46.7036543 C114.212352,47.7384711 114.431002,48.8353606 114.431002,49.9943556 C114.431002,51.1382987 114.208615,52.2295437 113.763834,53.2681236 C113.319054,54.3067034 112.715432,55.202277 111.952951,55.9548711 C111.19047,56.7074653 110.271022,57.3057686 109.194577,57.7497991 C108.118134,58.1938296 106.970691,58.4158416 105.752217,58.4158416 C104.130077,58.4158416 102.657464,58.0414316 101.334335,57.2926004 C100.011207,56.5437693 98.9777607,55.5277825 98.2339681,54.2446096 C97.4901756,52.9614366 97.1182846,51.5446994 97.1182846,49.9943556 Z M101.681935,49.9943556 C101.681935,51.1909802 102.070645,52.2182558 102.848076,53.076213 C103.625508,53.9341703 104.608495,54.3631425 105.797069,54.3631425 C107.000593,54.3631425 107.983581,53.9398147 108.746062,53.0931464 C109.508543,52.246478 109.889778,51.213558 109.889778,49.9943556 C109.889778,48.797731 109.501067,47.7704554 108.723636,46.9124981 C107.946205,46.0545408 106.955741,45.6255686 105.752217,45.6255686 C104.563644,45.6255686 103.588132,46.0488964 102.825651,46.8955648 C102.06317,47.7422332 101.681935,48.7751531 101.681935,49.9943556 Z M116.000807,58.0884647 L119.835619,52.4440372 C118.796552,52.0000066 117.987363,51.3584297 117.408026,50.5192874 C116.82869,49.6801449 116.539026,48.6509879 116.539026,47.4317854 C116.539026,46.5136206 116.712825,45.6951868 117.060427,44.9764595 C117.408028,44.2577321 117.88644,43.6782433 118.495677,43.2379757 C119.104915,42.7977082 119.805714,42.4646903 120.598096,42.2389121 C121.390478,42.0131338 122.253863,41.9002464 123.188276,41.9002464 L130.790622,41.9002464 L130.790622,58.0884647 L126.339101,58.0884647 L126.339101,53.1891016 L124.388056,53.1891016 L121.147528,58.0884647 L116.000807,58.0884647 Z M121.012974,47.7591623 C121.012974,48.3537116 121.224148,48.8334831 121.646502,49.1984913 C122.068857,49.5634994 122.65379,49.7460008 123.401321,49.7460008 L126.339101,49.7460008 L126.339101,45.7158794 L123.423747,45.7158794 C122.668741,45.7158794 122.078201,45.8927364 121.652109,46.2464556 C121.226017,46.6001748 121.012974,47.1044053 121.012974,47.7591623 Z M133.638698,58.0884647 L133.638698,41.9002464 L146.567171,41.9002464 L146.567171,45.7158794 L138.090219,45.7158794 L138.090219,47.5898294 L141.196192,47.5898294 C142.138081,47.5898294 142.997727,47.6989539 143.775159,47.9172063 C144.55259,48.1354585 145.230964,48.4553062 145.8103,48.8767589 C146.389637,49.2982116 146.840017,49.8438342 147.161454,50.5136429 C147.482893,51.1834517 147.643609,51.9435603 147.643609,52.7939916 C147.643609,54.4572246 147.084839,55.75543 145.967281,56.6886467 C144.849723,57.6218634 143.334128,58.0884647 141.420451,58.0884647 L133.638698,58.0884647 Z M138.090219,54.3179872 L141.084064,54.3179872 C141.75684,54.3179872 142.276366,54.1712335 142.642657,53.8777218 C143.008946,53.5842101 143.192088,53.1627637 143.192088,52.61337 C143.192088,52.1091319 143.007078,51.7083815 142.63705,51.4111069 C142.267022,51.1138322 141.75684,50.9651971 141.106489,50.9651971 L138.090219,50.9651971 L138.090219,54.3179872 Z M149.706783,58.0884647 L149.706783,41.9002464 L156.591503,41.9002464 C158.639737,41.9002464 160.26559,42.4063584 161.469114,43.4185974 C162.672638,44.4308365 163.274391,45.8362849 163.274391,47.6349849 C163.274391,48.8767651 162.973515,49.9416699 162.371752,50.8297308 C161.76999,51.7177919 160.955195,52.3781834 159.927341,52.810925 C158.899487,53.2436666 157.7128,53.4600342 156.367245,53.4600342 L154.158304,53.4600342 L154.158304,58.0884647 L149.706783,58.0884647 Z M154.158304,49.9492001 L156.277542,49.9492001 C157.069924,49.9492001 157.692234,49.7572915 158.14449,49.3734685 C158.596745,48.9896455 158.82287,48.4666005 158.82287,47.8043176 C158.82287,47.119457 158.596745,46.592649 158.14449,46.223878 C157.692234,45.8551068 157.062449,45.670724 156.255116,45.670724 L154.158304,45.670724 L154.158304,49.9492001 Z M164.418107,58.0884647 L168.252919,52.4440372 C167.213851,52.0000066 166.404662,51.3584297 165.825326,50.5192874 C165.24599,49.6801449 164.956326,48.6509879 164.956326,47.4317854 C164.956326,46.5136206 165.130124,45.6951868 165.477726,44.9764595 C165.825327,44.2577321 166.303739,43.6782433 166.912977,43.2379757 C167.522214,42.7977082 168.223014,42.4646903 169.015396,42.2389121 C169.807778,42.0131338 170.671163,41.9002464 171.605575,41.9002464 L179.207921,41.9002464 L179.207921,58.0884647 L174.7564,58.0884647 L174.7564,53.1891016 L172.805356,53.1891016 L169.564828,58.0884647 L164.418107,58.0884647 Z M169.430273,47.7591623 C169.430273,48.3537116 169.641447,48.8334831 170.063802,49.1984913 C170.486157,49.5634994 171.07109,49.7460008 171.81862,49.7460008 L174.7564,49.7460008 L174.7564,45.7158794 L171.841046,45.7158794 C171.086041,45.7158794 170.495501,45.8927364 170.069408,46.2464556 C169.643316,46.6001748 169.430273,47.1044053 169.430273,47.7591623 Z" id="НОЯБРЯ" transform="translate(129.702970, 50.000000) rotate(-90.000000) translate(-129.702970, -50.000000) "></path>
        </g>
    </g>
</svg>