<?xml version="1.0" encoding="UTF-8"?>
<svg width="231px" height="103px" viewBox="0 0 231 103" version="1.1" xmlns="http://www.w3.org/2000/svg" xmlns:xlink="http://www.w3.org/1999/xlink">
    <!-- Generator: Sketch 46.2 (44496) - http://www.bohemiancoding.com/sketch -->
    <title>Group</title>
    <desc>Created with Sketch.</desc>
    <defs></defs>
    <g id="Page-1" stroke="none" stroke-width="1" fill="none" fill-rule="evenodd">
        <g id="Artboard" transform="translate(-783.000000, -1419.000000)" fill-rule="nonzero" fill="#FFFFFF">
            <g id="Group" transform="translate(783.000000, 1419.000000)">
                <g transform="translate(4.000000, 88.000000)" id="Shape">
                    <polygon points="8.2 3.5 8.2 11.8 5.8 11.8 5.8 8.6 2.9 8.6 2.9 11.8 0.5 11.8 0.5 3.5 2.9 3.5 2.9 6.7 5.8 6.7 5.8 3.5"></polygon>
                    <path d="M12.9,12 C12.1,12 11.4,11.8 10.9,11.3 C10.4,10.8 10.1,10.2 10.1,9.4 C10.1,8.5 10.4,7.9 11,7.4 C11.6,7 12.4,6.7 13.4,6.7 C14.1,6.7 14.8,6.8 15.4,7 L15.4,6.9 C15.4,5.9 14.8,5.4 13.6,5.4 C12.9,5.4 12.1,5.5 11.3,5.8 L10.7,4 C11.7,3.6 12.8,3.3 13.9,3.3 C15.1,3.3 16.1,3.6 16.7,4.2 C17.3,4.8 17.6,5.7 17.6,6.9 L17.6,11.7 L15.3,11.7 L15.3,10.8 C14.7,11.6 13.9,12 12.9,12 Z M13.6,10.3 C14.1,10.3 14.6,10.2 14.9,9.9 C15.2,9.6 15.4,9.3 15.4,8.9 L15.4,8.5 C15,8.3 14.5,8.2 13.9,8.2 C13.4,8.2 13,8.3 12.7,8.5 C12.4,8.7 12.3,9 12.3,9.4 C12.3,9.7 12.4,10 12.7,10.1 C12.9,10.2 13.2,10.3 13.6,10.3 Z"></path>
                    <path d="M24,12 C22.6,12 21.5,11.6 20.8,10.7 C20.1,9.8 19.7,8.6 19.7,7 C19.7,6.4 19.7,5.9 19.8,5.5 C19.8,5.1 19.9,4.6 20.1,4.1 C20.2,3.6 20.4,3.2 20.7,2.8 C21,2.4 21.3,2.1 21.7,1.9 C22.1,1.6 22.7,1.4 23.3,1.3 L27.7,0.5 L28.1,2.4 L23.5,3.3 C22.2,3.6 21.6,4.2 21.5,5.3 C21.7,5 22.1,4.6 22.6,4.3 C23.1,4 23.8,3.9 24.5,3.9 C25.6,3.9 26.5,4.3 27.3,5 C28.1,5.7 28.5,6.7 28.5,7.8 C28.5,9 28.1,10 27.3,10.8 C26.5,11.6 25.2,12 24,12 Z M24,10 C24.6,10 25.1,9.8 25.4,9.4 C25.8,9 26,8.5 26,7.9 C26,7.3 25.8,6.8 25.4,6.4 C25,6 24.5,5.8 24,5.8 C23.4,5.8 22.9,6 22.6,6.4 C22.2,6.8 22,7.3 22,7.9 C22,8.5 22.2,9 22.6,9.4 C23,9.8 23.4,10 24,10 Z"></path>
                    <polygon points="30.1 11.8 30.1 9.3 32.6 9.3 32.6 11.8"></polygon>
                    <path d="M49.3,10.4 C48.2,11.5 46.8,12 45.2,12 C43.6,12 42.2,11.5 41.1,10.4 C40,9.3 39.5,8 39.5,6.4 C39.5,4.8 40.1,3.5 41.2,2.4 C42.3,1.3 43.7,0.8 45.3,0.8 C46.9,0.8 48.3,1.3 49.4,2.4 C50.5,3.5 51,4.8 51,6.4 C51,7.9 50.4,9.3 49.3,10.4 Z M42.8,8.8 C43.4,9.5 44.2,9.8 45.2,9.8 C46.2,9.8 46.9,9.5 47.5,8.8 C48.1,8.1 48.4,7.3 48.4,6.4 C48.4,5.4 48.1,4.6 47.5,4 C46.9,3.3 46.1,3 45.1,3 C44.1,3 43.4,3.3 42.8,4 C42.2,4.7 41.9,5.5 41.9,6.4 C41.9,7.3 42.2,8.1 42.8,8.8 Z"></path>
                    <path d="M57.1,12 C55.7,12 54.6,11.6 53.9,10.7 C53.2,9.8 52.8,8.6 52.8,7 C52.8,6.4 52.8,5.9 52.9,5.5 C52.9,5.1 53,4.6 53.2,4.1 C53.3,3.6 53.5,3.2 53.8,2.8 C54.1,2.4 54.4,2.1 54.8,1.9 C55.2,1.6 55.8,1.4 56.4,1.3 L60.8,0.5 L61.2,2.4 L56.6,3.3 C55.3,3.6 54.7,4.2 54.6,5.3 C54.8,5 55.2,4.6 55.7,4.3 C56.2,4 56.9,3.9 57.6,3.9 C58.7,3.9 59.6,4.3 60.4,5 C61.2,5.7 61.6,6.7 61.6,7.8 C61.6,9 61.2,10 60.4,10.8 C59.6,11.6 58.4,12 57.1,12 Z M57.2,10 C57.8,10 58.3,9.8 58.6,9.4 C59,9 59.2,8.5 59.2,7.9 C59.2,7.3 59,6.8 58.6,6.4 C58.2,6 57.7,5.8 57.2,5.8 C56.6,5.8 56.1,6 55.8,6.4 C55.4,6.8 55.2,7.3 55.2,7.9 C55.2,8.5 55.4,9 55.8,9.4 C56.1,9.8 56.6,10 57.2,10 Z"></path>
                    <path d="M63.3,3.5 L67.9,3.5 C68.7,3.5 69.4,3.7 69.9,4.1 C70.4,4.5 70.7,5 70.7,5.6 C70.7,6.5 70.3,7.1 69.4,7.5 C70.5,7.8 71,8.5 71,9.6 C71,10.3 70.7,10.9 70.2,11.3 C69.7,11.7 68.9,11.9 67.9,11.9 L63.4,11.9 L63.4,3.5 L63.3,3.5 Z M65.7,6.8 L67.4,6.8 C67.7,6.8 68,6.7 68.1,6.6 C68.3,6.4 68.4,6.2 68.4,6 C68.4,5.8 68.3,5.6 68.2,5.5 C68,5.4 67.8,5.3 67.5,5.3 L65.8,5.3 L65.8,6.8 L65.7,6.8 Z M65.7,10 L67.6,10 C68.3,10 68.7,9.7 68.7,9.2 C68.7,8.7 68.3,8.4 67.6,8.4 L65.8,8.4 L65.8,10 L65.7,10 Z"></path>
                    <path d="M80.1,10.7 C79.2,11.5 78.2,12 76.9,12 C75.6,12 74.6,11.6 73.7,10.8 C72.8,10 72.4,8.9 72.4,7.7 C72.4,6.5 72.8,5.5 73.7,4.6 C74.6,3.8 75.6,3.3 76.9,3.3 C78.2,3.3 79.2,3.7 80.1,4.5 C81,5.3 81.4,6.4 81.4,7.6 C81.4,8.9 81,9.9 80.1,10.7 Z M76.9,10 C77.6,10 78.1,9.8 78.5,9.3 C78.9,8.9 79.1,8.3 79.1,7.7 C79.1,7.1 78.9,6.5 78.5,6.1 C78.1,5.6 77.6,5.4 76.9,5.4 C76.2,5.4 75.7,5.6 75.3,6.1 C74.9,6.6 74.7,7.1 74.7,7.7 C74.7,8.3 74.9,8.9 75.3,9.3 C75.8,9.7 76.3,10 76.9,10 Z"></path>
                    <path d="M89.7,11.8 L84.5,11.8 L84.3,13.8 L82.3,13.8 L82.3,9.8 L83.2,9.8 C83.7,8.7 84,6.8 84,4.2 L84,3.5 L90.8,3.5 L90.8,9.8 L91.9,9.8 L91.6,13.8 L89.6,13.8 L89.6,11.8 L89.7,11.8 Z M85.7,9.8 L88.5,9.8 L88.5,5.5 L86.3,5.5 L86.3,5.7 C86.3,7.5 86.1,8.9 85.7,9.8 Z"></path>
                    <polygon points="101.1 3.5 101.1 11.8 98.7 11.8 98.7 8.6 95.8 8.6 95.8 11.8 93.4 11.8 93.4 3.5 95.8 3.5 95.8 6.7 98.7 6.7 98.7 3.5"></polygon>
                    <path d="M110.7,10.7 C109.8,11.5 108.8,12 107.5,12 C106.2,12 105.2,11.6 104.3,10.8 C103.4,10 103,8.9 103,7.7 C103,6.5 103.4,5.5 104.3,4.6 C105.2,3.8 106.2,3.3 107.5,3.3 C108.8,3.3 109.8,3.7 110.7,4.5 C111.6,5.3 112,6.4 112,7.6 C112,8.9 111.5,9.9 110.7,10.7 Z M107.5,10 C108.2,10 108.7,9.8 109.1,9.3 C109.5,8.8 109.7,8.3 109.7,7.7 C109.7,7.1 109.5,6.5 109.1,6.1 C108.7,5.6 108.2,5.4 107.5,5.4 C106.8,5.4 106.3,5.6 105.9,6.1 C105.5,6.5 105.3,7.1 105.3,7.7 C105.3,8.3 105.5,8.9 105.9,9.3 C106.3,9.7 106.9,10 107.5,10 Z"></path>
                    <polygon points="119.9 5.5 116.2 5.5 116.2 11.8 113.8 11.8 113.8 3.5 119.9 3.5"></polygon>
                    <path d="M128.7,10.7 C127.8,11.5 126.8,12 125.5,12 C124.2,12 123.2,11.6 122.3,10.8 C121.4,10 121,8.9 121,7.7 C121,6.5 121.4,5.5 122.3,4.6 C123.2,3.8 124.2,3.3 125.5,3.3 C126.8,3.3 127.8,3.7 128.7,4.5 C129.6,5.3 130,6.4 130,7.6 C130,8.9 129.6,9.9 128.7,10.7 Z M125.5,10 C126.2,10 126.7,9.8 127.1,9.3 C127.5,8.8 127.7,8.3 127.7,7.7 C127.7,7.1 127.5,6.5 127.1,6.1 C126.7,5.6 126.2,5.4 125.5,5.4 C124.8,5.4 124.3,5.6 123.9,6.1 C123.5,6.5 123.3,7.1 123.3,7.7 C123.3,8.3 123.5,8.9 123.9,9.3 C124.3,9.7 124.9,10 125.5,10 Z"></path>
                    <polygon points="136.7 11.8 136.7 3.5 139.1 3.5 139.1 6.9 142.1 3.5 144.8 3.5 141.7 6.9 145.1 11.8 142.3 11.8 140.1 8.6 139 9.8 139 11.8 136.7 11.8"></polygon>
                    <path d="M148.7,12 C147.9,12 147.2,11.8 146.7,11.3 C146.2,10.8 145.9,10.2 145.9,9.4 C145.9,8.5 146.2,7.9 146.8,7.4 C147.4,7 148.2,6.7 149.2,6.7 C149.9,6.7 150.6,6.8 151.2,7 L151.2,6.9 C151.2,5.9 150.6,5.4 149.4,5.4 C148.7,5.4 147.9,5.5 147.1,5.8 L146.5,4 C147.5,3.6 148.6,3.3 149.7,3.3 C150.9,3.3 151.9,3.6 152.5,4.2 C153.1,4.8 153.4,5.7 153.4,6.9 L153.4,11.7 L151.1,11.7 L151.1,10.8 C150.6,11.6 149.8,12 148.7,12 Z M149.4,10.3 C149.9,10.3 150.4,10.2 150.7,9.9 C151,9.6 151.2,9.3 151.2,8.9 L151.2,8.5 C150.8,8.3 150.3,8.2 149.7,8.2 C149.2,8.2 148.8,8.3 148.5,8.5 C148.2,8.7 148.1,9 148.1,9.4 C148.1,9.7 148.2,10 148.5,10.1 C148.7,10.2 149.1,10.3 149.4,10.3 Z"></path>
                    <polygon points="163.3 3.5 163.3 11.8 160.9 11.8 160.9 8.6 158 8.6 158 11.8 155.6 11.8 155.6 3.5 158 3.5 158 6.7 160.9 6.7 160.9 3.5"></polygon>
                    <path d="M168,12 C167.2,12 166.5,11.8 166,11.3 C165.5,10.8 165.2,10.2 165.2,9.4 C165.2,8.5 165.5,7.9 166.1,7.4 C166.7,7 167.5,6.7 168.5,6.7 C169.2,6.7 169.9,6.8 170.5,7 L170.5,6.9 C170.5,5.9 169.9,5.4 168.7,5.4 C168,5.4 167.2,5.5 166.4,5.8 L165.8,4 C166.8,3.6 167.9,3.3 169,3.3 C170.2,3.3 171.2,3.6 171.8,4.2 C172.4,4.8 172.7,5.7 172.7,6.9 L172.7,11.7 L170.4,11.7 L170.4,10.8 C169.9,11.6 169,12 168,12 Z M168.7,10.3 C169.2,10.3 169.7,10.2 170,9.9 C170.3,9.6 170.5,9.3 170.5,8.9 L170.5,8.5 C170.1,8.3 169.6,8.2 169,8.2 C168.5,8.2 168.1,8.3 167.8,8.5 C167.5,8.7 167.4,9 167.4,9.4 C167.4,9.7 167.5,10 167.8,10.1 C168,10.2 168.3,10.3 168.7,10.3 Z"></path>
                    <path d="M176,3.5 L182.7,3.5 L182.7,11.8 L180.3,11.8 L180.3,5.5 L178.2,5.5 C178.2,6.6 178.2,7.5 178.1,8.3 C178,9.1 177.9,9.7 177.8,10.1 C177.7,10.6 177.5,10.9 177.2,11.2 C176.9,11.5 176.7,11.6 176.4,11.7 C176.1,11.8 175.7,11.8 175.3,11.8 C174.9,11.8 174.5,11.8 174.1,11.7 L174.3,9.8 C174.5,9.8 174.7,9.8 174.8,9.8 C175,9.8 175.2,9.7 175.4,9.6 C175.5,9.5 175.7,9.2 175.8,8.8 C175.9,8.4 176,7.7 176.1,6.9 C176.2,6.1 176,4.9 176,3.5 Z"></path>
                    <path d="M187.3,12 C186.5,12 185.8,11.8 185.3,11.3 C184.8,10.8 184.5,10.2 184.5,9.4 C184.5,8.5 184.8,7.9 185.4,7.4 C186,7 186.8,6.7 187.8,6.7 C188.5,6.7 189.2,6.8 189.8,7 L189.8,6.9 C189.8,5.9 189.2,5.4 188,5.4 C187.3,5.4 186.5,5.5 185.7,5.8 L185.1,4 C186.1,3.6 187.2,3.3 188.3,3.3 C189.5,3.3 190.5,3.6 191.1,4.2 C191.7,4.8 192,5.7 192,6.9 L192,11.7 L189.7,11.7 L189.7,10.8 C189.2,11.6 188.4,12 187.3,12 Z M188,10.3 C188.5,10.3 189,10.2 189.3,9.9 C189.6,9.6 189.8,9.3 189.8,8.9 L189.8,8.5 C189.4,8.3 188.9,8.2 188.3,8.2 C187.8,8.2 187.4,8.3 187.1,8.5 C186.8,8.7 186.7,9 186.7,9.4 C186.7,9.7 186.8,10 187.1,10.1 C187.3,10.2 187.6,10.3 188,10.3 Z"></path>
                    <path d="M193.9,14.3 L193.7,13.3 C194.7,13.2 195.2,12.7 195.2,11.9 L195.2,11.7 L194.2,11.7 L194.2,9.2 L196.7,9.2 L196.7,11.3 C196.7,12.3 196.5,13 196,13.5 C195.5,14 194.8,14.3 193.9,14.3 Z"></path>
                    <polygon points="205.5 11.8 205.5 3.3 203.6 3.8 203.1 1.8 206.2 0.9 207.8 0.9 207.8 11.8"></polygon>
                    <path d="M214.3,12 C213.1,12 212.1,11.7 211.3,11.1 C210.5,10.5 210.1,9.8 210.1,8.8 C210.1,7.6 210.7,6.7 211.9,6.2 C211,5.6 210.5,4.8 210.5,3.8 C210.5,3 210.9,2.2 211.6,1.7 C212.3,1.2 213.2,0.8 214.4,0.8 C215.5,0.8 216.5,1.1 217.2,1.7 C217.9,2.3 218.3,3 218.3,3.9 C218.3,4.9 217.8,5.7 216.9,6.3 C217.5,6.6 217.9,7 218.2,7.4 C218.5,7.8 218.6,8.3 218.6,8.9 C218.6,9.9 218.2,10.7 217.4,11.2 C216.6,11.7 215.6,12 214.3,12 Z M214.3,10 C214.9,10 215.3,9.9 215.7,9.6 C216,9.3 216.2,9 216.2,8.6 C216.2,8.2 216,7.9 215.7,7.6 C215.4,7.4 214.9,7.2 214.3,7.2 C213.7,7.2 213.3,7.3 212.9,7.6 C212.6,7.8 212.4,8.2 212.4,8.6 C212.4,9 212.6,9.3 212.9,9.6 C213.3,9.9 213.8,10 214.3,10 Z M213.2,5 C213.5,5.3 213.9,5.4 214.3,5.4 C214.7,5.4 215.1,5.3 215.4,5 C215.7,4.7 215.8,4.4 215.8,4 C215.8,3.6 215.7,3.3 215.4,3.1 C215.1,2.9 214.7,2.7 214.3,2.7 C213.8,2.7 213.4,2.8 213.2,3.1 C213,3.4 212.8,3.7 212.8,4 C212.8,4.4 212.9,4.8 213.2,5 Z"></path>
                    <polygon points="222.2 11.8 222.2 3.3 220.3 3.8 219.8 1.8 222.9 0.9 224.5 0.9 224.5 11.8"></polygon>
                </g>
                <g id="Shape">
                    <path d="M21.7,46 C18.9,46 16.3,45.5 13.9,44.6 C11.5,43.7 9.4,42.3 7.5,40.4 C5.3,38.3 3.7,35.8 2.5,32.9 C1.4,30 0.8,26.8 0.8,23.3 C0.8,19.8 1.4,16.6 2.5,13.7 C3.6,10.8 5.3,8.3 7.5,6.1 C9.4,4.2 11.6,2.8 13.9,1.9 C16.3,1 18.8,0.5 21.6,0.5 C24.4,0.5 26.9,1 29.3,1.9 C31.7,2.8 33.8,4.2 35.7,6.1 C37.9,8.3 39.6,10.8 40.7,13.7 C41.8,16.6 42.4,19.8 42.4,23.3 C42.4,26.8 41.8,30 40.7,32.9 C39.6,35.8 37.9,38.3 35.7,40.5 C33.8,42.4 31.6,43.8 29.3,44.7 C27,45.6 24.4,46 21.7,46 M21.7,42.9 C24.9,42.9 27.2,41.5 28.5,38.7 C29.8,35.9 30.5,30.7 30.5,23.3 C30.5,15.9 29.8,10.8 28.5,8 C27.2,5.2 24.9,3.8 21.7,3.8 C18.5,3.8 16.2,5.2 14.9,8 C13.6,10.8 12.9,15.9 12.9,23.3 C12.9,30.8 13.6,35.9 14.9,38.7 C16.2,41.5 18.5,42.9 21.7,42.9"></path>
                    <path d="M52,9.6 C52,7.7 51.7,6.4 51.1,5.8 C50.5,5.2 49.1,4.8 46.9,4.6 L46.9,1.6 L70.3,1.6 C76.6,1.6 81.2,2.6 84.3,4.5 C87.4,6.4 88.9,9.4 88.9,13.3 C88.9,17.6 87.3,20.7 84.2,22.7 C81.1,24.7 76,25.7 69.1,25.7 L62.7,25.7 L62.7,37.1 C62.7,39 63.1,40.3 63.8,40.9 C64.5,41.5 66.2,41.9 68.8,42.1 L68.8,45.1 L46.8,45.1 L46.8,42.1 C49,41.9 50.3,41.5 51,40.9 C51.6,40.3 51.9,39 51.9,37.1 L51.9,9.6 L52,9.6 Z M62.8,10.1 L62.8,22.5 L66.3,22.5 C70.2,22.5 73.1,21.8 74.9,20.4 C76.7,19 77.6,16.7 77.6,13.6 C77.6,10.5 76.9,8.2 75.4,6.7 C74,5.2 71.8,4.4 68.8,4.4 C66.4,4.4 64.8,4.8 64,5.5 C63.2,6.2 62.8,7.7 62.8,10.1 L62.8,10.1 Z"></path>
                    <path d="M92.2,45 L92.2,42 C94.4,41.8 95.7,41.4 96.4,40.8 C97,40.2 97.3,38.9 97.3,37 L97.3,9.6 C97.3,7.7 97,6.4 96.4,5.8 C95.8,5.2 94.4,4.8 92.2,4.6 L92.2,1.6 L132.9,1.6 L133.8,16.2 L130.5,16.2 C129.7,12.1 128.2,9.2 125.8,7.3 C123.4,5.5 119.9,4.6 115.2,4.6 C112.3,4.6 110.4,4.9 109.5,5.5 C108.6,6.1 108.2,7.5 108.2,9.6 L108.2,20.9 L110.8,20.9 C113.3,20.9 115.2,20.2 116.5,18.8 C117.8,17.4 118.5,15.2 118.8,12.2 L121.8,12.2 L121.8,32.6 L118.8,32.6 C118.5,29.6 117.8,27.4 116.5,26 C115.2,24.6 113.3,23.9 110.8,23.9 L108.2,23.9 L108.2,36.8 C108.2,39 108.6,40.3 109.5,40.9 C110.4,41.5 112.3,41.8 115.4,41.8 C120.4,41.8 124.2,40.8 126.6,38.8 C129,36.8 130.5,33.5 131.1,29 L134.4,29 L133.4,44.9 L92.2,44.9 L92.2,45 Z"></path>
                    <path d="M157.2,37 C157.2,38.9 157.5,40.2 158.2,40.8 C158.9,41.4 160.5,41.8 163,42 L163,45 L141.3,45 L141.3,42 C143.5,41.8 144.8,41.4 145.5,40.8 C146.1,40.2 146.4,38.9 146.4,37 L146.4,9.6 C146.4,7.7 146.1,6.4 145.5,5.8 C144.9,5.2 143.5,4.8 141.3,4.6 L141.3,1.6 L163.1,1.6 C169.6,1.6 174.5,2.5 177.6,4.2 C180.7,5.9 182.3,8.6 182.3,12.3 C182.3,15.1 181.2,17.4 178.9,19 C176.6,20.7 173.1,21.7 168.5,22.3 C171.5,23 173.9,24 175.6,25.3 C177.3,26.6 178.5,28.3 179,30.3 C179.4,31.9 179.7,33.9 180,36.3 C180.1,37.3 180.2,38 180.2,38.4 C180.4,39.5 180.6,40.2 180.9,40.5 C181.2,40.9 181.6,41 182.2,41 C183.1,41 183.8,40.5 184.3,39.5 C184.8,38.5 185,37.1 185,35.3 L187.8,35.3 C187.8,35.5 187.8,35.6 187.8,35.8 C187.8,36 187.8,36.3 187.8,36.7 C187.8,39.7 187,42 185.5,43.6 C184,45.2 181.8,46 178.9,46 C177.2,46 175.8,45.8 174.6,45.3 C173.4,44.8 172.4,44.1 171.6,43.1 C170.5,41.7 169.8,39 169.6,34.9 C169.6,34.6 169.6,34.3 169.5,34.1 C169.2,29.8 168.3,26.9 166.8,25.5 C166.1,24.8 165.1,24.4 164,24 C162.9,23.7 161.5,23.5 159.8,23.5 L157.2,23.5 L157.2,37 Z M157.2,9.5 L157.2,20.7 L160.5,20.7 C164.4,20.7 167.1,20.1 168.8,18.9 C170.5,17.7 171.3,15.6 171.3,12.8 C171.3,10.1 170.6,8 169.2,6.5 C167.8,5.1 165.7,4.3 163,4.3 C160.6,4.3 159.1,4.6 158.3,5.3 C157.6,6 157.2,7.4 157.2,9.5 L157.2,9.5 Z"></path>
                    <path d="M186.7,45 L186.7,42 C188,41.7 189.1,41.2 189.9,40.4 C190.7,39.6 191.5,38.2 192.3,36.1 L205.5,1.6 L212.5,1.6 L225.4,36.8 C226.1,38.6 226.8,39.9 227.6,40.6 C228.4,41.3 229.5,41.8 231,42 L231,45 L209.9,45 L209.9,42 C211.8,41.9 213.1,41.6 213.8,41.2 C214.5,40.8 214.9,40.2 214.9,39.3 C214.9,39 214.8,38.3 214.5,37.4 C214.5,37.3 214.4,37.2 214.4,37.2 L212.2,30.3 L198,30.3 L196.2,35.7 L196.1,35.9 C195.6,37.3 195.4,38.3 195.4,38.9 C195.4,39.8 195.7,40.4 196.4,40.8 C197.1,41.2 198.3,41.6 200,41.8 L200,44.8 L186.7,44.8 L186.7,45 Z M199.1,27.4 L210.9,27.4 L205.3,10.4 L199.1,27.4 Z"></path>
                    <g transform="translate(2.000000, 56.000000)">
                        <path d="M18.2,14 C18.2,14.6 18,15.3 17.7,16 C17.4,16.7 16.9,17.4 16.3,18.1 C15.6,18.8 14.8,19.4 13.8,19.8 C12.8,20.2 11.6,20.4 10.3,20.4 C9.3,20.4 8.3,20.3 7.5,20.1 C6.7,19.9 5.9,19.6 5.2,19.2 C4.5,18.8 3.9,18.3 3.3,17.6 C2.8,17 2.4,16.3 2,15.6 C1.6,14.8 1.4,14 1.2,13.2 C1,12.3 0.9,11.4 0.9,10.5 C0.9,8.9 1.1,7.5 1.6,6.3 C2.1,5.1 2.7,4 3.5,3.1 C4.3,2.2 5.3,1.6 6.5,1.1 C7.6,0.6 8.8,0.4 10.1,0.4 C11.7,0.4 13.1,0.7 14.3,1.3 C15.5,1.9 16.5,2.7 17.1,3.6 C17.8,4.5 18.1,5.4 18.1,6.2 C18.1,6.6 17.9,7 17.6,7.4 C17.3,7.7 16.9,7.9 16.5,7.9 C16,7.9 15.6,7.8 15.4,7.5 C15.1,7.3 14.9,6.9 14.6,6.3 C14.1,5.3 13.5,4.6 12.8,4.1 C12.1,3.6 11.3,3.4 10.2,3.4 C8.6,3.4 7.3,4 6.4,5.2 C5.4,6.4 5,8.2 5,10.4 C5,11.9 5.2,13.2 5.6,14.2 C6,15.2 6.6,15.9 7.4,16.4 C8.2,16.9 9.1,17.1 10.1,17.1 C11.2,17.1 12.2,16.8 13,16.3 C13.8,15.7 14.4,14.9 14.8,13.8 C15,13.3 15.2,12.9 15.4,12.6 C15.6,12.3 16,12.1 16.6,12.1 C17.1,12.1 17.5,12.3 17.8,12.6 C18,13.1 18.2,13.5 18.2,14"></path>
                        <path d="M31.2,0.4 C33.2,0.4 34.9,0.8 36.4,1.6 C37.8,2.4 38.9,3.6 39.7,5.1 C40.4,6.6 40.8,8.4 40.8,10.4 C40.8,11.9 40.6,13.3 40.2,14.5 C39.8,15.7 39.2,16.8 38.4,17.7 C37.6,18.6 36.6,19.3 35.4,19.8 C34.2,20.3 32.9,20.5 31.3,20.5 C29.8,20.5 28.4,20.3 27.2,19.8 C26,19.3 25,18.6 24.2,17.7 C23.4,16.8 22.8,15.7 22.4,14.5 C22,13.3 21.8,11.9 21.8,10.4 C21.8,8.9 22,7.5 22.4,6.3 C22.8,5.1 23.4,4 24.3,3.1 C25.1,2.2 26.1,1.6 27.3,1.1 C28.4,0.6 29.7,0.4 31.2,0.4 M36.8,10.4 C36.8,9 36.6,7.8 36.1,6.7 C35.6,5.7 35,4.9 34.1,4.3 C33.2,3.8 32.3,3.5 31.2,3.5 C30.4,3.5 29.7,3.6 29,3.9 C28.3,4.2 27.8,4.6 27.3,5.2 C26.8,5.8 26.4,6.5 26.2,7.4 C25.9,8.3 25.8,9.3 25.8,10.4 C25.8,11.5 25.9,12.5 26.2,13.4 C26.5,14.3 26.9,15 27.4,15.6 C27.9,16.2 28.5,16.6 29.1,16.9 C29.8,17.2 30.5,17.3 31.3,17.3 C32.3,17.3 33.2,17.1 34.1,16.5 C35,15.9 35.6,15.2 36.1,14.2 C36.6,13.2 36.8,11.9 36.8,10.4"></path>
                        <path d="M49.2,2.7 L56.7,14.1 L56.7,2.6 C56.7,1.9 56.9,1.3 57.2,0.9 C57.5,0.5 58,0.3 58.5,0.3 C59.1,0.3 59.5,0.5 59.8,0.9 C60.1,1.3 60.3,1.8 60.3,2.6 L60.3,17.8 C60.3,19.5 59.6,20.3 58.2,20.3 C57.8,20.3 57.5,20.3 57.2,20.1 C56.9,19.9 56.7,19.8 56.4,19.6 C56.2,19.4 55.9,19.1 55.7,18.8 C55.5,18.5 55.3,18.2 55.1,17.9 L47.7,6.6 L47.7,17.9 C47.7,18.6 47.5,19.2 47.2,19.6 C46.9,20 46.4,20.2 45.9,20.2 C45.3,20.2 44.9,20 44.6,19.6 C44.3,19.2 44.1,18.7 44.1,17.9 L44.1,3 C44.1,2.4 44.2,1.9 44.3,1.5 C44.5,1.1 44.7,0.8 45.1,0.5 C45.5,0.2 45.9,0.1 46.4,0.1 C46.8,0.1 47.1,0.2 47.3,0.3 C47.6,0.4 47.8,0.6 48,0.8 C48.2,1 48.4,1.2 48.6,1.6 C48.8,2.1 49,2.4 49.2,2.7"></path>
                        <path d="M82.2,14 C82.2,14.6 82,15.3 81.7,16 C81.4,16.7 80.9,17.4 80.3,18.1 C79.6,18.8 78.8,19.4 77.8,19.8 C76.8,20.2 75.6,20.4 74.3,20.4 C73.3,20.4 72.3,20.3 71.5,20.1 C70.7,19.9 69.9,19.6 69.2,19.2 C68.5,18.8 67.9,18.3 67.3,17.6 C66.8,17 66.4,16.3 66,15.6 C65.6,14.8 65.4,14 65.2,13.2 C65,12.3 64.9,11.4 64.9,10.5 C64.9,8.9 65.1,7.5 65.6,6.3 C66.1,5.1 66.7,4 67.5,3.1 C68.3,2.2 69.3,1.6 70.5,1.1 C71.6,0.6 72.8,0.4 74.1,0.4 C75.7,0.4 77.1,0.7 78.3,1.3 C79.5,1.9 80.5,2.7 81.1,3.6 C81.8,4.5 82.1,5.4 82.1,6.2 C82.1,6.6 81.9,7 81.6,7.4 C81.3,7.7 80.9,7.9 80.5,7.9 C80,7.9 79.6,7.8 79.4,7.5 C79.1,7.3 78.9,6.9 78.6,6.3 C78.1,5.3 77.5,4.6 76.8,4.1 C76.1,3.6 75.3,3.4 74.2,3.4 C72.6,3.4 71.3,4 70.4,5.2 C69.4,6.4 69,8.2 69,10.4 C69,11.9 69.2,13.2 69.6,14.2 C70,15.2 70.6,15.9 71.4,16.4 C72.2,16.9 73.1,17.1 74.1,17.1 C75.2,17.1 76.2,16.8 77,16.3 C77.8,15.7 78.4,14.9 78.8,13.8 C79,13.3 79.2,12.9 79.4,12.6 C79.6,12.3 80,12.1 80.6,12.1 C81.1,12.1 81.5,12.3 81.8,12.6 C82,13.1 82.2,13.5 82.2,14"></path>
                        <path d="M99.5,3.8 L90.7,3.8 L90.7,8.6 L98.8,8.6 C99.4,8.6 99.8,8.7 100.1,9 C100.4,9.3 100.5,9.6 100.5,10.1 C100.5,10.5 100.4,10.9 100.1,11.2 C99.8,11.5 99.4,11.6 98.8,11.6 L90.7,11.6 L90.7,17.1 L99.8,17.1 C100.4,17.1 100.9,17.2 101.2,17.5 C101.5,17.8 101.7,18.2 101.7,18.6 C101.7,19.1 101.5,19.4 101.2,19.7 C100.9,20 100.4,20.1 99.8,20.1 L89.1,20.1 C88.2,20.1 87.6,19.9 87.3,19.5 C86.9,19.1 86.7,18.5 86.7,17.7 L86.7,3.1 C86.7,2.5 86.8,2.1 87,1.7 C87.2,1.3 87.4,1.1 87.8,0.9 C88.2,0.7 88.6,0.7 89.2,0.7 L99.6,0.7 C100.2,0.7 100.7,0.8 101,1.1 C101.3,1.4 101.5,1.7 101.5,2.2 C101.5,2.7 101.3,3 101,3.3 C100.5,3.6 100.1,3.8 99.5,3.8"></path>
                        <path d="M112,11.8 L110.6,11.8 L110.6,18 C110.6,18.8 110.4,19.4 110.1,19.8 C109.7,20.2 109.3,20.4 108.7,20.4 C108.1,20.4 107.6,20.2 107.2,19.8 C106.8,19.4 106.7,18.8 106.7,18 L106.7,3.1 C106.7,2.3 106.9,1.6 107.3,1.3 C107.7,0.9 108.3,0.7 109.1,0.7 L115.5,0.7 C116.4,0.7 117.1,0.7 117.8,0.8 C118.4,0.9 119,1 119.5,1.3 C120.1,1.6 120.6,1.9 121.1,2.4 C121.6,2.9 121.9,3.4 122.2,4.1 C122.4,4.7 122.6,5.4 122.6,6.1 C122.6,7.5 122.2,8.7 121.4,9.6 C120.6,10.5 119.4,11.1 117.7,11.4 C118.4,11.8 119.1,12.3 119.7,13 C120.3,13.7 120.9,14.5 121.4,15.3 C121.9,16.1 122.3,16.9 122.6,17.5 C122.9,18.2 123,18.6 123,18.9 C123,19.2 122.9,19.4 122.8,19.7 C122.6,20 122.4,20.1 122.1,20.3 C121.8,20.4 121.5,20.5 121.1,20.5 C120.7,20.5 120.3,20.4 120,20.2 C119.7,20 119.4,19.7 119.2,19.4 C119,19.1 118.7,18.6 118.3,18 L116.7,15.4 C116.1,14.4 115.6,13.7 115.2,13.2 C114.8,12.7 114.3,12.4 113.8,12.2 C113.3,11.9 112.7,11.8 112,11.8 M114.3,3.7 L110.7,3.7 L110.7,9 L114.2,9 C115.1,9 115.9,8.9 116.6,8.8 C117.2,8.6 117.7,8.4 118.1,8 C118.4,7.6 118.6,7.1 118.6,6.4 C118.6,5.9 118.5,5.4 118.2,5 C117.9,4.6 117.5,4.3 117.1,4.1 C116.5,3.8 115.6,3.7 114.3,3.7"></path>
                        <path d="M139.4,4 L135.1,4 L135.1,18.1 C135.1,18.9 134.9,19.5 134.6,19.9 C134.2,20.3 133.8,20.5 133.2,20.5 C132.6,20.5 132.1,20.3 131.8,19.9 C131.4,19.5 131.3,18.9 131.3,18.1 L131.3,4 L127,4 C126.3,4 125.8,3.9 125.5,3.6 C125.2,3.3 125,2.9 125,2.4 C125,1.9 125.2,1.5 125.5,1.2 C125.8,0.9 126.3,0.8 127,0.8 L139.5,0.8 C140.2,0.8 140.7,0.9 141,1.2 C141.3,1.5 141.5,1.9 141.5,2.4 C141.5,2.9 141.3,3.3 141,3.6 C140.6,3.8 140.1,4 139.4,4"></path>
                        <path d="M171,14 C171,14.6 170.8,15.3 170.5,16 C170.2,16.7 169.7,17.4 169.1,18.1 C168.4,18.8 167.6,19.4 166.6,19.8 C165.6,20.2 164.4,20.4 163.1,20.4 C162.1,20.4 161.1,20.3 160.3,20.1 C159.5,19.9 158.7,19.6 158,19.2 C157.3,18.8 156.7,18.3 156.1,17.6 C155.6,17 155.2,16.3 154.8,15.6 C154.4,14.9 154.2,14 154,13.2 C153.8,12.3 153.7,11.4 153.7,10.5 C153.7,8.9 153.9,7.5 154.4,6.3 C154.9,5.1 155.5,4 156.3,3.1 C157.1,2.2 158.1,1.6 159.3,1.1 C160.5,0.6 161.6,0.4 162.9,0.4 C164.5,0.4 165.9,0.7 167.1,1.3 C168.3,1.9 169.3,2.7 169.9,3.6 C170.6,4.5 170.9,5.4 170.9,6.2 C170.9,6.6 170.7,7 170.4,7.4 C170.1,7.7 169.7,7.9 169.3,7.9 C168.8,7.9 168.4,7.8 168.2,7.5 C167.9,7.3 167.7,6.9 167.4,6.3 C166.9,5.3 166.3,4.6 165.6,4.1 C164.9,3.6 164.1,3.4 163,3.4 C161.4,3.4 160.1,4 159.2,5.2 C158.2,6.4 157.8,8.2 157.8,10.4 C157.8,11.9 158,13.2 158.4,14.2 C158.8,15.2 159.4,15.9 160.2,16.4 C161,16.9 161.9,17.1 162.9,17.1 C164,17.1 165,16.8 165.8,16.3 C166.6,15.7 167.2,14.9 167.6,13.8 C167.8,13.3 168,12.9 168.2,12.6 C168.4,12.3 168.8,12.1 169.4,12.1 C169.9,12.1 170.3,12.3 170.6,12.6 C170.8,13.1 171,13.5 171,14"></path>
                        <path d="M178.4,2.8 L178.4,16.9 L186.4,16.9 C187,16.9 187.5,17.1 187.9,17.4 C188.2,17.7 188.4,18.1 188.4,18.6 C188.4,19.1 188.2,19.5 187.9,19.8 C187.6,20.1 187.1,20.2 186.4,20.2 L176.9,20.2 C176,20.2 175.4,20 175.1,19.6 C174.7,19.2 174.5,18.6 174.5,17.8 L174.5,2.9 C174.5,2.1 174.7,1.5 175,1.1 C175.4,0.7 175.8,0.5 176.4,0.5 C177,0.5 177.5,0.7 177.8,1.1 C178.2,1.4 178.4,2 178.4,2.8"></path>
                        <path d="M190.5,12.1 L190.5,2.8 C190.5,2 190.7,1.4 191,1 C191.4,0.6 191.8,0.4 192.4,0.4 C193,0.4 193.5,0.6 193.8,1 C194.2,1.4 194.3,2 194.3,2.8 L194.3,12.3 C194.3,13.4 194.4,14.3 194.7,15 C194.9,15.7 195.4,16.3 196,16.7 C196.6,17.1 197.5,17.3 198.6,17.3 C200.1,17.3 201.2,16.9 201.8,16.1 C202.4,15.3 202.7,14.1 202.7,12.4 L202.7,2.8 C202.7,2 202.9,1.4 203.2,1 C203.6,0.6 204,0.4 204.6,0.4 C205.2,0.4 205.7,0.6 206,1 C206.4,1.4 206.5,2 206.5,2.8 L206.5,12.1 C206.5,13.6 206.4,14.9 206.1,15.9 C205.8,16.9 205.2,17.8 204.4,18.6 C203.7,19.3 202.9,19.7 201.9,20 C201,20.3 199.9,20.4 198.6,20.4 C197.1,20.4 195.8,20.2 194.8,19.9 C193.7,19.6 192.9,19.1 192.2,18.4 C191.5,17.7 191,16.9 190.7,15.8 C190.7,14.8 190.5,13.5 190.5,12.1"></path>
                        <path d="M220.3,20.1 L214.4,20.1 C213.5,20.1 212.9,19.9 212.6,19.5 C212.2,19.1 212.1,18.5 212.1,17.7 L212.1,3.1 C212.1,2.2 212.3,1.6 212.7,1.3 C213.1,0.9 213.7,0.7 214.5,0.7 L220.8,0.7 C221.7,0.7 222.5,0.8 223.2,0.9 C223.9,1 224.5,1.2 225,1.6 C225.5,1.9 225.9,2.2 226.2,2.6 C226.6,3 226.8,3.5 227,4 C227.2,4.5 227.3,5 227.3,5.6 C227.3,7.5 226.3,9 224.4,9.9 C226.9,10.7 228.2,12.3 228.2,14.6 C228.2,15.7 227.9,16.7 227.4,17.5 C226.8,18.4 226.1,19 225.2,19.4 C224.6,19.6 223.9,19.8 223.2,19.9 C222.3,20 221.4,20.1 220.3,20.1 L220.3,20.1 Z M216,3.7 L216,8.7 L219.6,8.7 C220.6,8.7 221.3,8.6 221.9,8.4 C222.4,8.2 222.8,7.9 223.1,7.3 C223.3,6.9 223.4,6.5 223.4,6.1 C223.4,5.1 223.1,4.5 222.4,4.2 C221.7,3.9 220.6,3.7 219.2,3.7 L216,3.7 Z M220,11.5 L215.9,11.5 L215.9,17.2 L220.1,17.2 C222.7,17.2 224.1,16.2 224.1,14.3 C224.1,13.3 223.8,12.6 223.1,12.2 C222.4,11.7 221.4,11.5 220,11.5 L220,11.5 Z"></path>
                    </g>
                </g>
            </g>
        </g>
    </g>
</svg>