<?xml version="1.0" encoding="UTF-8"?>
<svg width="42px" height="43px" viewBox="0 0 42 43" version="1.1" xmlns="http://www.w3.org/2000/svg" xmlns:xlink="http://www.w3.org/1999/xlink">
    <!-- Generator: Sketch 46.2 (44496) - http://www.bohemiancoding.com/sketch -->
    <title>Group 3</title>
    <desc>Created with Sketch.</desc>
    <defs></defs>
    <g id="Page-1" stroke="none" stroke-width="1" fill="none" fill-rule="evenodd">
        <g id="Desktop-HD" transform="translate(-1077.000000, -80.000000)" fill="#FFFFFF">
            <g id="Group-3" transform="translate(1077.000000, 80.000000)">
                <path d="M38.1962,21.5024 C38.1962,18.6434 38.1982,15.7844 38.1942,12.9264 C38.1932,12.5614 38.1782,12.1934 38.1372,11.8304 C37.9412,10.1164 37.3112,8.5754 36.2062,7.2484 C34.4732,5.1704 32.2382,4.0504 29.5352,4.0314 C23.7242,3.9924 17.9122,4.0204 12.1002,4.0194 C10.5872,4.0184 9.1442,4.3324 7.8302,5.0854 C4.8322,6.8024 3.2582,9.4114 3.2332,12.8624 C3.1922,18.6224 3.2212,24.3834 3.2222,30.1444 C3.2222,30.7914 3.2902,31.4314 3.4242,32.0654 C4.2712,36.0654 7.8802,38.9924 11.9662,38.9924 L29.3632,38.9924 C30.6812,38.9924 31.9422,38.7234 33.1342,38.1584 C34.8952,37.3254 36.2402,36.0484 37.1612,34.3324 C37.8652,33.0224 38.1962,31.6144 38.1962,30.1294 L38.1962,21.5024 Z M0.0432,30.7294 L0.0432,12.2844 C0.0512,12.2334 0.0632,12.1844 0.0652,12.1344 C0.1072,11.3624 0.2222,10.6024 0.4212,9.8564 C1.1862,6.9814 2.7882,4.6844 5.2222,2.9794 C7.1992,1.5944 9.4102,0.8594 11.8232,0.8504 C17.6612,0.8264 23.4992,0.8414 29.3372,0.8414 C30.6112,0.8404 31.8572,1.0254 33.0692,1.4224 C34.7622,1.9764 36.2702,2.8534 37.5612,4.0824 C40.0102,6.4154 41.3372,9.2784 41.3622,12.6644 C41.4042,18.5314 41.3752,24.3994 41.3722,30.2674 C41.3722,31.4374 41.1862,32.5794 40.8452,33.6974 C39.3212,38.6964 34.6292,42.1694 29.3902,42.1714 C23.6432,42.1734 17.8962,42.1734 12.1492,42.1704 C11.7662,42.1694 11.3832,42.1524 11.0012,42.1214 C9.6372,42.0134 8.3312,41.6714 7.0922,41.0984 C4.6622,39.9764 2.7952,38.2394 1.5022,35.8964 C0.7432,34.5214 0.2832,33.0464 0.1172,31.4824 C0.0902,31.2314 0.0682,30.9804 0.0432,30.7294 L0.0432,30.7294 Z" id="Fill-5"></path>
                <path d="M20.7054,13.5571 C16.3014,13.5591 12.7624,17.0971 12.7584,21.5021 C12.7554,25.9071 16.3074,29.4581 20.7114,29.4561 C25.1124,29.4541 28.6564,25.9111 28.6594,21.5091 C28.6624,17.1031 25.1134,13.5541 20.7054,13.5571 M31.8384,21.5061 C31.8364,27.6391 26.8254,32.6381 20.6854,32.6351 C14.5804,32.6321 9.5724,27.6101 9.5794,21.4981 C9.5864,15.3561 14.5974,10.3691 20.7514,10.3771 C26.8434,10.3861 31.8404,15.4031 31.8384,21.5061" id="Fill-7"></path>
                <path d="M32.6395,7.1987 C33.9515,7.2027 35.0175,8.2737 35.0165,9.5857 C35.0155,10.9007 33.9375,11.9737 32.6225,11.9697 C31.3075,11.9657 30.2375,10.8847 30.2455,9.5687 C30.2535,8.2577 31.3265,7.1947 32.6395,7.1987" id="Fill-9"></path>
            </g>
        </g>
    </g>
</svg>