<?xml version="1.0" encoding="UTF-8"?>
<svg width="82px" height="144px" viewBox="0 0 82 144" version="1.1" xmlns="http://www.w3.org/2000/svg" xmlns:xlink="http://www.w3.org/1999/xlink">
    <!-- Generator: Sketch 46.2 (44496) - http://www.bohemiancoding.com/sketch -->
    <title>Fill 1</title>
    <desc>Created with Sketch.</desc>
    <defs></defs>
    <g id="Page-1" stroke="none" stroke-width="1" fill="none" fill-rule="evenodd">
        <g id="Desktop-HD" transform="translate(-211.000000, -43.000000)" fill="#FFFFFF">
            <path d="M218.48465,89.8089855 C218.622761,89.9832175 218.829503,89.9116579 218.974675,89.9809547 C219.380534,90.1747029 219.278575,90.5596537 218.953775,90.6142426 C218.584632,90.6759026 218.55074,90.1942191 218.48465,89.8089855 M216.883245,136.014393 C216.838903,135.30502 217.504319,135.298232 217.746366,134.886977 C217.820646,134.760263 217.992649,134.689269 218.111272,134.823903 C218.210971,134.93704 218.213795,135.111555 218.113813,135.243926 C217.692138,135.803392 217.188274,136.255659 216.58923,136.574707 C216.532461,136.604972 216.442364,136.62166 216.39548,136.593092 C216.351985,136.566505 216.345206,136.470904 216.333627,136.436962 C216.416945,136.076902 216.898779,136.262165 216.883245,136.014393 M219.018452,132.678247 C219.361611,132.998144 220.361995,132.53032 220.036065,133.652645 C220.02618,133.686869 220.164008,133.817543 220.238571,133.821503 C220.924323,133.857424 220.794403,134.537099 221.025152,134.943546 C221.426774,135.650656 220.690467,135.771147 220.493045,136.132056 C220.345331,136.40189 219.857849,136.398496 219.530789,136.347018 C219.335062,136.316188 219.255133,136.035324 219.359916,135.778501 C219.765775,136.040132 219.829605,136.058517 219.933824,135.936611 C220.051034,135.799432 219.999913,135.64811 219.961502,135.503577 C219.835254,135.034056 219.664663,135.578813 219.496614,135.495374 C219.283376,135.389308 219.117304,135.3746 219.194974,134.996437 C219.354267,134.222576 219.363588,133.434855 219.018452,132.678247 M217.475511,154.621573 C217.476358,154.623553 217.477488,154.625533 217.478335,154.627513 C217.305767,154.650141 217.100155,154.570662 217.134047,154.431219 C217.199854,154.1628 217.370163,153.905978 217.54273,153.685925 C217.684795,153.505188 217.863294,153.645761 217.960451,153.775304 C218.067212,153.91814 218.263786,154.040612 218.184705,154.283858 C218.058739,154.669374 217.733091,154.562459 217.475511,154.621573 M216.273186,157.88814 C216.860368,157.08458 217.233182,156.219925 217.118231,155.173119 C217.08914,154.909226 217.217648,154.698224 217.479747,154.630907 C217.670391,155.077801 218.150812,155.518189 217.98926,155.961972 C217.775457,156.549156 217.745236,157.135209 217.649773,157.720979 C217.604301,158.000994 217.236571,158.191631 217.403207,158.479284 C217.702871,158.99604 217.408291,159.559465 217.680841,160.272515 C217.037172,159.733697 216.781851,160.289486 216.428242,160.474183 C216.301429,160.540651 216.188173,160.698478 216.104007,160.469092 C216.053734,160.331347 216.065878,160.085555 216.225454,160.092626 C216.804728,160.118365 216.958937,159.513927 216.753325,159.338281 C216.272903,158.928157 216.846246,158.653516 216.744569,158.349458 C216.68667,158.175792 216.542628,158.303638 216.438128,158.308446 C216.048367,158.326548 216.116999,158.102253 216.273186,157.88814 M217.963276,161.143392 C218.288358,161.218346 218.176514,161.545314 218.263221,161.755184 C218.376478,162.029543 218.54961,162.398654 218.136408,162.482942 C217.744671,162.562704 217.979092,162.12373 217.91385,161.926587 C217.859622,161.763386 217.828837,161.588306 217.806807,161.415205 C217.791273,161.29132 217.802853,161.158666 217.963276,161.143392 M226.480663,130.817416 C226.661704,130.697773 226.782586,130.887562 226.856584,131.033226 C227.123767,131.559599 226.666505,131.744296 226.388307,132.021766 C226.447336,131.60542 225.973128,131.152869 226.480663,130.817416 M234.360596,88.1735811 C234.940999,85.1072685 235.808357,82.1028987 236.202071,78.9964223 C236.391867,77.4976315 236.658203,76.0084575 236.886128,74.5141923 C237.006163,73.7264715 237.32136,73.1418328 238.086758,72.8691711 C238.852157,72.5967923 239.610212,72.2763299 240.335787,71.8942076 C240.891619,71.6011811 241.140162,71.8167083 241.359613,72.325262 C242.063441,73.9544438 242.620685,75.6517911 243.048009,77.3856253 C244.376582,82.7752191 246.459257,87.820026 248.661684,92.8136381 C249.02772,93.6435026 249.092397,93.6287947 249.638909,92.9287556 C251.85348,90.0921124 254.039808,87.2288819 256.29731,84.4329682 C258.918588,81.1859182 261.775134,78.1758916 264.582819,75.1206099 C265.700696,73.9043804 266.844557,72.6853225 268.32847,71.5576232 C268.138391,72.1213314 268.015814,72.4763007 267.898886,72.8332499 C267.288545,74.701435 267.010911,76.6519278 266.567206,78.5611252 C265.648445,82.5161339 264.970602,86.5240344 263.90441,90.450193 C263.268649,92.7915763 263.369196,95.2404402 263.769971,97.6330183 C263.890853,98.3534221 264.152388,99.0622294 264.161426,99.7840474 C264.178654,101.17564 264.063986,102.572607 263.999591,103.967311 C263.98095,104.368667 263.835779,104.570618 263.409867,104.497361 C262.763373,104.38592 262.103888,104.351696 261.454005,104.258358 C256.539074,103.552945 251.605785,103.052028 246.62194,103.337983 C245.393348,103.408411 244.078049,103.191187 242.962714,104.08752 C242.854541,104.174636 242.855388,104.098551 242.848892,104.038588 C242.780261,103.408977 242.307465,103.720388 242.082929,103.757158 C241.315271,103.883589 240.572185,103.723783 239.821473,103.692104 C237.655198,103.600745 235.534112,103.063342 233.359364,103.042411 C232.786586,103.036754 232.592271,102.812459 232.658361,102.161918 C232.916789,99.6216949 233.108562,97.0752497 233.361341,94.5347443 C233.574014,92.3967259 233.960668,90.2850121 234.360596,88.1735811 M240.991883,113.651044 C241.219243,112.73378 241.399154,112.007437 241.577088,111.289861 C241.91488,112.064006 241.91488,112.064006 240.991883,113.651044 M248.262321,115.157754 C248.261756,115.700532 248.457484,116.020146 248.96276,116.149405 C249.534973,116.295919 249.996753,117.127197 249.92445,117.724564 C249.607558,117.350644 249.636084,117.381191 249.299422,117.748889 C249.104824,117.961022 248.7772,118.067937 248.505215,117.942354 C248.271077,117.83459 247.763541,117.81366 248.164316,117.267771 C248.30864,117.071194 248.112913,116.95636 248.012931,116.82908 C247.505113,116.182215 247.550868,115.837711 248.262321,115.157754 M250.857897,106.856846 C251.382379,106.412215 251.252176,105.792504 251.46372,105.292436 C251.55071,105.086808 251.512581,104.625772 251.763383,104.770306 C252.042994,104.931244 252.679037,104.488876 252.635825,105.274334 C252.629894,105.38238 252.819407,105.469779 252.921649,105.373612 C253.354904,104.966882 254.014389,105.118204 254.411775,104.609933 C254.519383,104.472188 254.491987,104.11835 254.858587,104.24959 C254.765101,104.753052 254.420248,105.436969 254.201643,105.490144 C253.496686,105.662396 253.556845,106.257783 253.350385,106.714859 C253.299829,106.826865 253.554868,107.111972 253.251533,107.038149 C253.079812,106.996288 252.786927,107.29384 252.708693,106.881454 C252.654183,106.592953 252.41722,106.749366 252.263858,106.695342 C251.820718,106.539212 251.436889,106.897576 250.857897,106.856846 M261.520943,111.845084 C261.810156,111.823871 262.046836,112.182235 262.330118,111.746372 C262.488564,111.50256 262.240304,112.275856 262.644468,112.110958 C262.653506,112.107281 262.684574,112.371457 262.595042,112.334122 C262.249342,112.190154 261.732486,112.456028 261.520943,111.845084 M266.019565,92.8583275 C267.23008,92.8068498 266.765758,91.8946777 266.937196,91.1343928 C267.146197,91.6078738 267.097336,91.9614289 267.378924,92.1831787 C267.573521,92.3364801 267.58849,92.6153644 267.561377,92.9194218 C267.539347,93.1700216 267.51421,93.2715626 267.295605,93.3476477 C267.131511,93.4047822 266.946798,93.4743618 266.824222,93.3801748 C266.603358,93.2107512 267.021926,93.0631066 266.886922,92.8580446 C266.679615,92.8984913 266.488124,93.1154327 266.019565,92.8583275 M255.474295,84.0961009 C254.523619,83.7807298 254.621342,84.520367 254.53181,85.1895761 C254.231017,84.7661585 254.009023,84.4058152 253.757373,84.0788474 C253.432573,83.6568441 254.232146,83.5530403 254.262367,83.1112379 C254.269428,83.005737 254.523054,82.8776086 254.683195,82.9862208 C254.77075,83.045618 254.817916,83.1836459 254.86706,83.2948037 C255.005171,83.6056493 255.17096,83.8913218 255.474295,84.0961009 M270.720693,137.239108 C271.097461,136.625336 271.675323,136.88527 272.121852,136.676531 C271.845348,137.451807 271.284433,137.225249 270.720693,137.239108 M275.21875,122.82792 C275.40431,123.255297 276.077917,122.954917 276.092886,123.610549 C276.390572,123.543232 276.154174,123.131977 276.556926,123.066923 C276.560598,123.355141 276.690236,123.662593 276.458922,123.889999 C276.205577,124.138902 276.051086,123.817874 275.865808,123.701059 C275.665562,123.574911 275.603709,123.611964 275.602862,123.889716 C275.602014,124.072999 275.365899,124.082899 275.224964,124.145407 C275.206605,124.15361 275.100127,124.002005 275.109448,123.989843 C275.38115,123.628934 274.86147,123.232104 275.21875,122.82792 M277.969383,137.999959 C278.226681,137.901246 278.506009,137.769158 278.711904,137.64103 C279.056757,137.426351 279.911405,137.7157 279.66145,136.735646 C279.660885,136.444033 279.773012,136.417163 280.062508,136.328916 C280.530502,136.186362 281.247887,136.700573 281.480613,135.771713 C281.51507,135.633119 281.737064,135.659141 281.852015,135.761814 C281.959623,135.858263 282.071467,136.034192 281.920364,136.145916 C281.323579,136.587718 281.244498,137.460575 280.570608,137.87579 C280.004891,138.224537 280.030875,139.255504 280.537281,139.612453 C280.752778,139.764057 281.047358,139.992312 281.217384,139.530145 C281.321037,139.24815 281.436836,139.320558 281.579183,139.446989 C281.756552,139.604816 281.770391,139.752461 281.580877,139.947623 C281.169935,140.370758 280.566089,140.272611 280.14046,139.619524 C279.898131,139.247867 279.544522,138.972942 279.21944,139.118607 C278.776299,139.317446 278.623785,139.017632 278.392753,138.819641 C278.305481,138.745253 278.348411,138.487582 278.127264,138.599588 C277.965711,138.68133 277.833532,138.646257 277.796533,138.469197 C277.759534,138.291005 277.816303,138.058507 277.969383,137.999959 M278.051854,139.636212 C278.054114,139.621787 278.12557,139.409936 278.395012,139.413896 C278.600625,139.416725 278.66502,139.569743 278.64525,139.769148 C278.620395,140.023708 278.500643,140.189455 278.249558,140.20388 C278.016267,140.217456 277.993108,140.057084 278.051854,139.636212 M286.23032,131.497656 C286.467565,131.209155 286.943468,131.126282 287.148233,130.702016 C287.153317,130.691268 287.374746,130.756039 287.448179,130.835801 C287.539123,130.934514 287.500994,131.140707 287.392822,131.155981 C286.982726,131.213115 286.951376,131.654635 286.711589,131.877233 C286.594661,131.985845 286.473779,132.063344 286.32889,131.981602 C286.173833,131.894204 286.209985,131.728457 286.23032,131.497656 M214.962405,100.011737 C214.780517,102.693664 214.722901,105.36145 215.792199,107.89149 C216.122648,108.673554 216.658709,109.438364 216.653343,110.334131 C216.641763,112.160738 217.119078,113.835458 217.68423,115.501127 C217.988412,116.398591 218.305587,117.275408 218.745903,118.117152 C219.101488,118.796826 219.140464,119.614528 218.999247,120.478617 C218.630104,122.734864 218.101386,124.948119 217.238265,127.035508 C216.497721,128.825911 215.467681,130.480549 214.950261,132.383807 C214.944047,132.406434 214.875416,132.410111 214.836722,132.422556 C214.685619,132.265861 214.88982,131.984431 214.656246,131.807371 C214.462213,132.326107 214.383696,132.82872 214.387368,133.336991 C214.392734,134.065315 214.274112,134.971264 213.875879,135.329345 C213.351397,135.800846 213.394327,136.190322 213.412685,136.724898 C213.431609,137.276726 213.136182,137.400895 212.612265,137.243068 C213.373709,137.910014 212.951752,138.771274 212.930852,139.482344 C212.842167,142.507362 212.747551,145.528419 212.899784,148.548063 C212.959942,149.740533 212.978301,150.938661 212.961355,152.134526 C212.955706,152.541538 213.295475,152.827211 213.119801,153.301257 C212.782291,154.212015 213.051169,155.175099 213.040154,156.108768 C213.024338,157.451428 213.016429,158.760996 212.514825,160.130245 C212.576678,160.804828 212.915035,161.419165 213.03394,162.08498 C213.042413,162.133912 211.446374,162.596928 211.444679,162.640769 C211.666391,163.526353 211.120444,164.76719 212.107836,164.905218 C212.249054,164.925017 212.533183,166.398635 212.605487,166.603697 C213.047215,167.85811 213.789171,168.668176 215.015503,168.855701 C217.225838,169.193983 217.149581,171.545831 219.259934,172.191282 C219.823109,172.363816 221.9634,180.329837 222.518102,180.526696 C223.005303,180.699797 224.747361,187.032676 225.073855,186.862404 C225.174402,187.222747 224.496841,186.748135 225.073855,186.862404 C226.240876,187.094336 228.032078,169.908447 228.160303,168.584171 C228.293613,167.209266 228.334848,165.826441 228.43596,164.448425 C228.696647,160.90156 228.903107,157.349322 229.266601,153.812074 C229.422505,152.293484 229.730359,150.77744 229.959696,149.25885 C230.558458,145.294224 231.029559,141.309234 231.775752,137.368651 C232.145741,135.412784 232.662315,133.487464 233.10715,131.549134 C233.457651,130.022907 233.520634,128.41013 233.466689,126.822527 C233.46556,126.797071 233.453697,126.769635 233.459911,126.747007 C234.093695,124.475769 232.708069,122.574774 232.602721,120.43421 C232.542845,119.219395 232.366606,118.014196 232.2477,116.803907 C232.201381,116.330991 232.351636,116.261695 232.782067,116.38756 C235.30534,117.126066 237.821552,117.906999 240.377305,118.505214 C242.32667,118.961158 244.352293,118.8698 246.353626,118.881679 C246.43525,118.882245 246.518286,118.832747 246.684075,118.780138 C246.397121,118.53463 246.168067,118.338619 245.90286,118.112061 C246.289514,118.02749 246.518851,118.169195 246.708929,118.447514 C246.832353,118.628534 246.993341,118.859052 247.226068,118.730075 C247.51867,118.567722 247.739534,118.055209 248.105005,118.589218 C249.129114,117.862309 250.016806,118.755531 250.960704,118.857072 C253.846058,119.167069 256.668994,119.284732 259.368507,117.724281 C260.5231,117.056769 261.672328,117.474247 262.8128,117.7619 C263.121218,117.839965 263.060777,118.152507 263.142683,118.371994 C264.445838,121.872755 264.897734,125.643915 265.88908,129.236318 C266.251726,130.550977 266.921662,131.827735 267.45857,133.117787 C267.94803,134.292439 268.372529,135.501314 268.890515,136.660126 C270.108656,139.385612 271.084186,142.235266 272.374631,144.92483 C272.537879,145.265374 272.706492,145.429707 273.01943,145.484579 C273.310338,144.679887 273.445342,143.773089 274.35224,143.452344 C274.465214,143.412463 274.503343,143.336095 274.476511,143.224654 C274.353087,142.711858 274.510686,142.702241 274.889714,142.901364 C275.074991,142.998662 275.111707,142.686968 275.231177,142.585144 C275.398379,142.443156 275.595801,142.45447 275.746903,142.612014 C275.893487,142.76475 275.84632,142.911263 275.698889,143.06711 C275.253772,143.538046 274.955521,144.134281 274.469168,144.590791 C274.043821,144.989601 273.854872,145.704631 273.532332,146.150393 C272.716942,147.276961 273.206967,148.695424 272.479979,149.816053 C273.867299,149.016735 275.331159,148.534203 276.692495,147.779293 C278.386539,146.839967 279.922138,145.581311 281.70176,144.815369 C282.582674,144.436076 283.464718,144.066116 284.369922,143.762058 C284.73285,143.640152 285.189265,143.521924 284.693592,142.968963 C284.519612,142.774932 284.607449,142.538758 284.742453,142.341898 C284.947783,142.041518 285.202257,141.817505 285.182204,141.347701 C285.16667,140.981418 285.552476,141.233432 285.766844,141.162155 C285.804973,141.523064 285.419167,141.695599 285.493165,142.075742 C285.712052,143.198916 285.838583,143.274435 286.893194,142.957932 C288.421449,142.499442 289.954506,142.058205 291.494905,141.656001 C291.938893,141.540035 292.093385,141.4252 292.062317,140.866301 C291.874498,137.486031 291.660412,134.109721 292.132926,130.703996 C292.224152,130.046949 292.584821,129.394145 292.377232,128.661296 C292.172467,127.938629 291.997357,127.210306 291.692045,126.528086 C291.364985,125.796934 290.786276,125.326281 290.243719,124.812071 C289.8935,124.480295 289.493572,124.170015 289.250961,123.755931 C288.926161,123.202122 288.574529,123.277642 288.10597,123.465167 C287.348762,123.768376 286.570936,124.00738 285.810622,124.302103 C285.444586,124.444091 285.236997,124.34453 284.966706,124.042169 C283.191603,122.055473 281.95934,119.704473 280.977314,117.168493 C280.739504,116.554155 280.692055,116.5765 280.098095,116.471282 C280.222366,116.250098 280.567501,116.545387 280.560723,116.325617 C280.548861,115.954809 280.415834,115.573535 280.165032,115.297479 C279.982861,115.097508 279.713418,115.057062 279.462051,114.981825 C278.425515,114.671262 278.025588,113.846206 278.341067,112.697859 C278.816688,110.967702 279.1847,109.220291 279.233561,107.415746 C279.244012,107.022027 279.224806,106.634814 278.989255,106.332736 C278.012596,105.081717 277.783541,103.564258 277.781564,101.988534 C277.77874,99.8236456 277.812632,97.6573428 277.871661,95.4916058 C277.90527,94.2456776 278.434553,93.1162812 278.792398,91.9506808 C279.484646,89.695565 279.967892,87.3852946 280.141872,85.041083 C280.503389,80.1707909 282.238386,75.846105 284.565084,71.7032879 C286.30573,68.6038825 288.043552,65.5118311 290.082166,62.6172048 C290.899815,61.4566956 291.167281,59.9983516 291.410175,58.5914852 C291.721418,56.7900513 292.197038,55.0174674 292.408017,53.2013257 C291.478242,53.0794199 290.551573,52.9382807 289.632812,52.7419869 C289.230908,52.6562851 288.822507,52.560401 288.413824,52.4500918 C288.396313,52.4919527 288.375413,52.5329651 288.348299,52.5719976 C288.268935,52.6848524 288.153984,52.7753625 288.033666,52.8296685 C287.994408,52.8472049 287.952325,52.8551245 287.914196,52.8752064 C287.914761,52.8749236 287.915326,52.8746408 287.916173,52.8743579 C287.833985,52.9148046 287.7453,52.9343209 287.654921,52.9278154 C287.11773,53.2330042 286.563593,53.3865885 286.0007,53.5384758 C285.427358,53.6931915 284.68173,53.481907 284.37783,54.347127 C284.317106,54.5199447 284.16205,54.5100452 284.038343,54.3632491 C283.930171,54.2354036 283.766076,54.3086602 283.75026,54.4127468 C283.663834,54.9857889 283.238205,54.8780253 282.904932,54.952979 C282.583239,55.0253871 282.117504,54.9640099 281.962165,55.1735974 C281.420454,55.9055978 280.611561,55.8365839 279.938801,56.108397 C279.041788,56.4707203 278.067953,56.5875349 277.130834,56.8364377 C275.681661,57.2211056 274.292364,57.6569683 272.964073,58.4831559 C271.55783,59.3582754 270.071093,60.1304398 268.436642,60.4336486 C268.146017,60.487389 267.854262,60.3369159 267.554881,60.5773334 C265.93201,61.8801132 264.276094,63.1342438 262.658025,64.4438119 C261.927649,65.034956 261.145587,65.3899253 260.254222,65.5064571 C259.668735,65.582825 259.090873,65.7499858 258.505386,65.8133429 C256.9133,65.9847464 255.344092,66.6955335 253.715291,66.1434219 C253.415627,66.041598 253.209167,65.9261977 253.0993,65.6238373 C252.750493,64.6641474 252.365817,63.7177511 252.065589,62.7396763 C251.050235,59.4320977 250.100972,56.099346 249.005125,52.8223146 C248.937623,52.6209296 248.914181,52.4201103 248.705179,52.371744 C247.752526,52.152257 247.080331,51.4236507 246.301941,50.8862469 C242.47975,48.2470289 238.419749,46.0142578 234.737081,43.1366022 C234.398442,42.8715773 234.302979,43.0121508 234.157807,43.3863535 C231.629733,49.9132633 229.31179,56.5289862 226.705764,63.0230861 C225.611894,65.7488544 224.752162,68.5804064 223.221365,71.0999814 C222.165906,72.8372097 221.155072,74.6168646 220.21993,76.4228241 C218.216337,80.2915653 217.080949,84.5048106 216.466936,88.8427901 C215.94076,92.5619069 215.217162,96.2595274 214.962405,100.011737" id="Fill-1"></path>
        </g>
    </g>
</svg>