<?xml version="1.0" encoding="UTF-8"?>
<svg width="190px" height="20px" viewBox="0 0 190 20" version="1.1" xmlns="http://www.w3.org/2000/svg" xmlns:xlink="http://www.w3.org/1999/xlink">
    <!-- Generator: Sketch 46.2 (44496) - http://www.bohemiancoding.com/sketch -->
    <title>#MUHAPARTY</title>
    <desc>Created with Sketch.</desc>
    <defs></defs>
    <g id="Page-1" stroke="none" stroke-width="1" fill="none" fill-rule="evenodd">
        <g id="Desktop-HD" transform="translate(-352.000000, -94.000000)" fill="#FFFFFF">
            <path d="M352.749023,109.496094 L352.749023,105.306641 L355.503906,105.306641 L355.999023,102.386719 L353.612305,102.386719 L353.612305,98.2099609 L356.735352,98.2099609 L357.306641,94.7949219 L361.077148,94.7949219 L360.480469,98.2099609 L363.78125,98.2099609 L364.352539,94.7949219 L368.123047,94.7949219 L367.551758,98.2099609 L369.570312,98.2099609 L369.570312,102.386719 L366.81543,102.386719 L366.320312,105.306641 L368.719727,105.306641 L368.719727,109.496094 L365.62207,109.496094 L365,113 L361.229492,113 L361.851562,109.496094 L358.550781,109.496094 L357.954102,113 L354.183594,113 L354.780273,109.496094 L352.749023,109.496094 Z M359.147461,105.408203 L362.638672,105.408203 L363.15918,102.285156 L359.693359,102.285156 L359.147461,105.408203 Z M371.703784,113 L371.703784,94.7949219 L377.035816,94.7949219 L381.377613,101.84082 L385.719409,94.7949219 L391.051441,94.7949219 L391.051441,113 L386.024097,113 L386.024097,102.551758 L381.377613,109.673828 L381.27605,109.673828 L376.642261,102.602539 L376.642261,113 L371.703784,113 Z M393.781592,105.014648 L393.781592,94.7949219 L398.897803,94.7949219 L398.897803,104.913086 C398.897803,106.191087 399.194024,107.155921 399.786475,107.807617 C400.378926,108.459313 401.199881,108.785156 402.249366,108.785156 C403.29885,108.785156 404.119806,108.472008 404.712256,107.845703 C405.304707,107.219398 405.600928,106.284186 405.600928,105.040039 L405.600928,94.7949219 L410.729835,94.7949219 L410.729835,104.887695 C410.729835,106.334968 410.530943,107.600255 410.133155,108.683594 C409.735366,109.766932 409.159851,110.647132 408.406592,111.324219 C407.653333,112.001305 406.758323,112.506997 405.721534,112.841309 C404.684745,113.17562 403.51044,113.342773 402.198585,113.342773 C399.532556,113.342773 397.46324,112.650886 395.990577,111.26709 C394.517913,109.883294 393.781592,107.799168 393.781592,105.014648 Z M413.459986,113 L413.459986,94.7949219 L418.500025,94.7949219 L418.500025,101.612305 L424.974635,101.612305 L424.974635,94.7949219 L430.027369,94.7949219 L430.027369,113 L424.974635,113 L424.974635,106.081055 L418.500025,106.081055 L418.500025,113 L413.459986,113 Z M431.526075,113 L439.282911,94.6679688 L444.145216,94.6679688 L451.889357,113 L446.481153,113 L445.148146,109.75 L438.127638,109.75 L436.832716,113 L431.526075,113 Z M439.612989,105.827148 L443.70088,105.827148 L441.66963,100.647461 L439.612989,105.827148 Z M453.400758,113 L453.400758,94.7949219 L461.19568,94.7949219 C463.514702,94.7949219 465.355504,95.3640894 466.718141,96.5024414 C468.080778,97.6407935 468.762086,99.2213441 468.762086,101.244141 C468.762086,102.640632 468.421432,103.838211 467.740114,104.836914 C467.058795,105.835617 466.136278,106.578285 464.972536,107.064941 C463.808793,107.551597 462.465219,107.794922 460.941774,107.794922 L458.440797,107.794922 L458.440797,113 L453.400758,113 Z M458.440797,103.84668 L460.840211,103.84668 C461.737351,103.84668 462.441934,103.630862 462.953981,103.199219 C463.466028,102.767576 463.722047,102.179366 463.722047,101.43457 C463.722047,100.664384 463.466028,100.071942 462.953981,99.6572266 C462.441934,99.2425109 461.728888,99.0351562 460.814821,99.0351562 L458.440797,99.0351562 L458.440797,103.84668 Z M467.366261,113 L475.123097,94.6679688 L479.985402,94.6679688 L487.729543,113 L482.32134,113 L480.988332,109.75 L473.967824,109.75 L472.672902,113 L467.366261,113 Z M475.453176,105.827148 L479.541066,105.827148 L477.509816,100.647461 L475.453176,105.827148 Z M489.240944,113 L489.240944,94.7949219 L497.848366,94.7949219 C500.497468,94.7949219 502.473685,95.4466081 503.777077,96.75 C504.851952,97.8248752 505.389382,99.2636629 505.389382,101.066406 C505.389382,102.412116 505.059307,103.554683 504.399148,104.494141 C503.738988,105.433598 502.820703,106.152992 501.644265,106.652344 L505.986062,113 L500.158913,113 L496.489968,107.490234 L494.280983,107.490234 L494.280983,113 L489.240944,113 Z M494.280983,103.541992 L497.607155,103.541992 C498.461977,103.541992 499.126359,103.345217 499.600319,102.95166 C500.07428,102.558104 500.311257,102.014326 500.311257,101.320312 C500.311257,100.617835 500.072164,100.082521 499.593972,99.7143555 C499.115779,99.3461896 498.44505,99.1621094 497.581765,99.1621094 L494.280983,99.1621094 L494.280983,103.541992 Z M506.659573,99.2255859 L506.659573,94.7949219 L522.630276,94.7949219 L522.630276,99.2255859 L517.158596,99.2255859 L517.158596,113 L512.118557,113 L512.118557,99.2255859 L506.659573,99.2255859 Z M522.910232,94.7949219 L528.661209,94.7949219 L532.393631,101.43457 L536.164138,94.7949219 L541.813552,94.7949219 L534.894607,106.106445 L534.894607,113 L529.829177,113 L529.829177,106.182617 L522.910232,94.7949219 Z" id="#MUHAPARTY"></path>
        </g>
    </g>
</svg>