<?xml version="1.0" encoding="UTF-8"?>
<svg width="263px" height="123px" viewBox="0 0 263 123" version="1.1" xmlns="http://www.w3.org/2000/svg" xmlns:xlink="http://www.w3.org/1999/xlink">
    <!-- Generator: Sketch 46.2 (44496) - http://www.bohemiancoding.com/sketch -->
    <title>Group 7</title>
    <desc>Created with Sketch.</desc>
    <defs></defs>
    <g id="Page-1" stroke="none" stroke-width="1" fill="none" fill-rule="evenodd">
        <g id="Desktop-HD" transform="translate(-279.000000, -58.000000)" fill="#FFFFFF">
            <g id="Group-7" transform="translate(279.000000, 58.000000)">
                <path d="M73.7490234,51.4960938 L73.7490234,47.3066406 L76.5039062,47.3066406 L76.9990234,44.3867188 L74.6123047,44.3867188 L74.6123047,40.2099609 L77.7353516,40.2099609 L78.3066406,36.7949219 L82.0771484,36.7949219 L81.4804688,40.2099609 L84.78125,40.2099609 L85.3525391,36.7949219 L89.1230469,36.7949219 L88.5517578,40.2099609 L90.5703125,40.2099609 L90.5703125,44.3867188 L87.8154297,44.3867188 L87.3203125,47.3066406 L89.7197266,47.3066406 L89.7197266,51.4960938 L86.6220703,51.4960938 L86,55 L82.2294922,55 L82.8515625,51.4960938 L79.5507812,51.4960938 L78.9541016,55 L75.1835938,55 L75.7802734,51.4960938 L73.7490234,51.4960938 Z M80.1474609,47.4082031 L83.6386719,47.4082031 L84.1591797,44.2851562 L80.6933594,44.2851562 L80.1474609,47.4082031 Z M92.7037845,55 L92.7037845,36.7949219 L98.0358157,36.7949219 L102.377613,43.8408203 L106.719409,36.7949219 L112.051441,36.7949219 L112.051441,55 L107.024097,55 L107.024097,44.5517578 L102.377613,51.6738281 L102.27605,51.6738281 L97.642261,44.6025391 L97.642261,55 L92.7037845,55 Z M114.781592,47.0146484 L114.781592,36.7949219 L119.897803,36.7949219 L119.897803,46.9130859 C119.897803,48.1910871 120.194024,49.1559212 120.786475,49.8076172 C121.378926,50.4593132 122.199881,50.7851562 123.249366,50.7851562 C124.29885,50.7851562 125.119806,50.4720083 125.712256,49.8457031 C126.304707,49.2193979 126.600928,48.2841859 126.600928,47.0400391 L126.600928,36.7949219 L131.729835,36.7949219 L131.729835,46.8876953 C131.729835,48.3349682 131.530943,49.600255 131.133155,50.6835938 C130.735366,51.7669325 130.159851,52.647132 129.406592,53.3242188 C128.653333,54.0013055 127.758323,54.506997 126.721534,54.8413086 C125.684745,55.1756202 124.51044,55.3427734 123.198585,55.3427734 C120.532556,55.3427734 118.46324,54.6508858 116.990577,53.2670898 C115.517913,51.8832939 114.781592,49.7991676 114.781592,47.0146484 Z M134.459986,55 L134.459986,36.7949219 L139.500025,36.7949219 L139.500025,43.6123047 L145.974635,43.6123047 L145.974635,36.7949219 L151.027369,36.7949219 L151.027369,55 L145.974635,55 L145.974635,48.0810547 L139.500025,48.0810547 L139.500025,55 L134.459986,55 Z M152.526075,55 L160.282911,36.6679688 L165.145216,36.6679688 L172.889357,55 L167.481153,55 L166.148146,51.75 L159.127638,51.75 L157.832716,55 L152.526075,55 Z M160.612989,47.8271484 L164.70088,47.8271484 L162.66963,42.6474609 L160.612989,47.8271484 Z M174.400758,55 L174.400758,36.7949219 L182.19568,36.7949219 C184.514702,36.7949219 186.355504,37.3640894 187.718141,38.5024414 C189.080778,39.6407935 189.762086,41.2213441 189.762086,43.2441406 C189.762086,44.640632 189.421432,45.8382112 188.740114,46.8369141 C188.058795,47.835617 187.136278,48.5782853 185.972536,49.0649414 C184.808793,49.5515975 183.465219,49.7949219 181.941774,49.7949219 L179.440797,49.7949219 L179.440797,55 L174.400758,55 Z M179.440797,45.8466797 L181.840211,45.8466797 C182.737351,45.8466797 183.441934,45.6308615 183.953981,45.1992188 C184.466028,44.767576 184.722047,44.1793657 184.722047,43.4345703 C184.722047,42.6643842 184.466028,42.0719422 183.953981,41.6572266 C183.441934,41.2425109 182.728888,41.0351562 181.814821,41.0351562 L179.440797,41.0351562 L179.440797,45.8466797 Z M188.366261,55 L196.123097,36.6679688 L200.985402,36.6679688 L208.729543,55 L203.32134,55 L201.988332,51.75 L194.967824,51.75 L193.672902,55 L188.366261,55 Z M196.453176,47.8271484 L200.541066,47.8271484 L198.509816,42.6474609 L196.453176,47.8271484 Z M210.240944,55 L210.240944,36.7949219 L218.848366,36.7949219 C221.497468,36.7949219 223.473685,37.4466081 224.777077,38.75 C225.851952,39.8248752 226.389382,41.2636629 226.389382,43.0664062 C226.389382,44.4121161 226.059307,45.5546828 225.399148,46.4941406 C224.738988,47.4335984 223.820703,48.1529923 222.644265,48.6523438 L226.986062,55 L221.158913,55 L217.489968,49.4902344 L215.280983,49.4902344 L215.280983,55 L210.240944,55 Z M215.280983,45.5419922 L218.607155,45.5419922 C219.461977,45.5419922 220.126359,45.3452168 220.600319,44.9516602 C221.07428,44.5581035 221.311257,44.0143264 221.311257,43.3203125 C221.311257,42.617835 221.072164,42.0825214 220.593972,41.7143555 C220.115779,41.3461896 219.44505,41.1621094 218.581765,41.1621094 L215.280983,41.1621094 L215.280983,45.5419922 Z M227.659573,41.2255859 L227.659573,36.7949219 L243.630276,36.7949219 L243.630276,41.2255859 L238.158596,41.2255859 L238.158596,55 L233.118557,55 L233.118557,41.2255859 L227.659573,41.2255859 Z M243.910232,36.7949219 L249.661209,36.7949219 L253.393631,43.4345703 L257.164138,36.7949219 L262.813552,36.7949219 L255.894607,48.1064453 L255.894607,55 L250.829177,55 L250.829177,48.1826172 L243.910232,36.7949219 Z" id="#MUHAPARTY"></path>
                <path d="M6.01330854,39.9826751 C6.13127804,40.1314982 6.30787043,40.0703745 6.4318711,40.1295655 C6.77854222,40.2950587 6.69145226,40.6238708 6.41401886,40.6704989 C6.09870978,40.7231668 6.0697602,40.3117288 6.01330854,39.9826751 M4.64544128,79.4497943 C4.60756559,78.8438715 5.17594218,78.8380732 5.38269037,78.4867927 C5.44613818,78.3785577 5.59305726,78.3179171 5.69438076,78.4329168 C5.77954075,78.5295552 5.78195321,78.6786199 5.69655198,78.7916868 C5.33637105,79.2695637 4.90598742,79.6558756 4.39430374,79.9283959 C4.34581321,79.9542467 4.2688556,79.9685008 4.22880869,79.9440996 C4.19165674,79.9213896 4.18586682,79.8397302 4.17597572,79.8107387 C4.24714342,79.503187 4.65870983,79.6614323 4.64544128,79.4497943 M6.46926429,76.6001697 C6.76237871,76.8734147 7.61687357,76.473815 7.33847519,77.4324678 C7.33003156,77.4617009 7.44775982,77.5733183 7.51144888,77.5767006 C8.09719521,77.6073833 7.98622185,78.1879385 8.18332019,78.5351119 C8.52637261,79.1391018 7.89744317,79.2420217 7.72881191,79.5502982 C7.60264003,79.7807808 7.18624869,79.7778816 6.90688532,79.7339111 C6.73970154,79.7075772 6.6714288,79.4676724 6.76093123,79.2483032 C7.10760235,79.4717795 7.16212404,79.4874832 7.25114398,79.3833554 C7.35126125,79.2661813 7.30759564,79.1369275 7.27478613,79.0134719 C7.16694897,78.6124226 7.02123613,79.0777365 6.8776945,79.0064656 C6.69555345,78.9158671 6.55370054,78.9033042 6.62004331,78.5802903 C6.7561063,77.9192837 6.76406743,77.2464389 6.46926429,76.6001697 M5.15133504,95.3434273 C5.15205878,95.3451185 5.15302377,95.3468097 5.15374751,95.3485009 C5.00634594,95.3678285 4.83071853,95.2999401 4.85966811,95.1808332 C4.91587852,94.9515587 5.06135012,94.7321895 5.20875169,94.5442278 C5.33009865,94.389848 5.48256639,94.5099212 5.56555516,94.6205722 C5.65674631,94.7425781 5.82465383,94.8471892 5.75710483,95.0549617 C5.64950892,95.3842571 5.37135179,95.2929338 5.15133504,95.3434273 M4.12434898,98.1336193 C4.62590031,97.4472451 4.9443456,96.7086862 4.84615831,95.8145395 C4.82130992,95.5891305 4.93107705,95.4088999 5.15495374,95.3514 C5.31779508,95.7331217 5.72815526,96.1092866 5.5901623,96.4883507 C5.40753875,96.9899039 5.38172538,97.4904908 5.30018409,97.9908361 C5.26134341,98.2300161 4.94724056,98.3928518 5.08957596,98.6385549 C5.34553842,99.0799508 5.09391839,99.5612099 5.3267212,100.170273 C4.77692058,99.7100331 4.55883381,100.184769 4.25679328,100.342531 C4.14847363,100.399306 4.05173381,100.534117 3.97984237,100.338183 C3.93690051,100.220525 3.9472741,100.010578 4.08357834,100.016618 C4.57837477,100.038604 4.71009532,99.522313 4.53446792,99.3722819 C4.12410774,99.0219677 4.61383799,98.787378 4.52698928,98.5276623 C4.47753376,98.3793224 4.35449808,98.4885238 4.2652369,98.4926309 C3.93231683,98.5080931 3.99093971,98.3165075 4.12434898,98.1336193 M5.56796763,100.914147 C5.84564227,100.97817 5.75010868,101.257455 5.82417134,101.43672 C5.92091116,101.671068 6.06879522,101.98635 5.71585169,102.058346 C5.38124289,102.126476 5.58147743,101.751519 5.5257495,101.583127 C5.47943019,101.443726 5.45313433,101.294178 5.43431711,101.146321 C5.42104855,101.040502 5.43093966,100.927194 5.56796763,100.914147 M12.8432362,75.0107097 C12.9978752,74.9085146 13.1011287,75.0706255 13.1643352,75.1950475 C13.3925544,75.6446576 13.0019764,75.8024198 12.7643487,76.0394254 C12.8147692,75.6837961 12.4097164,75.2972426 12.8432362,75.0107097 M19.5740117,38.5857672 C20.0697731,35.9666252 20.8106409,33.4003927 21.1469384,30.746944 C21.309056,29.4667269 21.5365514,28.1947241 21.7312373,26.9183725 C21.833767,26.2455277 22.102998,25.7461489 22.7567758,25.5132503 C23.4105537,25.2805934 24.0580591,25.0068652 24.6778212,24.680469 C25.1525941,24.4301756 25.364891,24.6142717 25.5523395,25.0486613 C26.1535256,26.4402541 26.6295048,27.8900716 26.9945106,29.3710549 C28.1293339,33.9746663 29.908285,38.2837722 31.7895247,42.5491492 C32.1021801,43.2579918 32.1574255,43.2454288 32.6242374,42.6474788 C34.5158506,40.2245127 36.3833392,37.7788366 38.311622,35.3906603 C40.5506301,32.6171385 42.9905965,30.0460741 45.3888273,27.4363543 C46.3436806,26.3974916 47.3207287,25.3562129 48.5882374,24.3929698 C48.4258786,24.8744706 48.3211776,25.1776735 48.2213016,25.4825676 C47.6999681,27.0783091 47.4628228,28.744355 47.0838247,30.3751278 C46.2990501,33.7533644 45.7200586,37.1767794 44.8093533,40.5303732 C44.2663076,42.5303047 44.3521914,44.6220427 44.69452,46.6657031 C44.7977735,47.281048 45.0211677,47.8864876 45.0288876,48.5030405 C45.0436036,49.6916927 44.9456576,50.8849353 44.8906534,52.076245 C44.8747311,52.4190697 44.7507305,52.5915693 44.3869308,52.5289959 C43.8347178,52.4338071 43.2714073,52.404574 42.7162993,52.3248473 C38.5181289,51.7223069 34.3042775,51.2944405 30.047243,51.538694 C28.997821,51.5988514 27.8743364,51.4133057 26.9216542,52.1789233 C26.8292568,52.2533349 26.8299806,52.1883456 26.8244319,52.1371272 C26.765809,51.5993346 26.3619625,51.8653318 26.1701716,51.8967392 C25.5144638,52.0047326 24.8797444,51.8682309 24.2385114,51.8411722 C22.3881513,51.7631367 20.5763906,51.3041043 18.7187931,51.2862262 C18.2295453,51.2813943 18.0635678,51.0898087 18.1200194,50.5341379 C18.3407599,48.3643644 18.5045662,46.1892758 18.7204818,44.0192607 C18.9021404,42.1930367 19.2324067,40.3892812 19.5740117,38.5857672 M25.2382366,60.3477666 C25.43244,59.5642708 25.586114,58.9438523 25.7380992,58.3309233 C26.02663,58.9921715 26.02663,58.9921715 25.2382366,60.3477666 M31.4484023,61.6347484 C31.4479198,62.098371 31.6151035,62.3713745 32.0466934,62.4817839 C32.5354587,62.6069306 32.9298966,63.3169812 32.8681375,63.8272319 C32.597459,63.507842 32.6218249,63.5339344 32.3342591,63.8480091 C32.1680404,64.0292061 31.8881945,64.1205294 31.6558742,64.0132608 C31.4558809,63.9212127 31.0223611,63.9033346 31.3646897,63.4370544 C31.4879667,63.2691452 31.3207829,63.1710572 31.2353817,63.062339 C30.8016206,62.509809 30.8407025,62.2155451 31.4484023,61.6347484 M33.665457,54.5443896 C34.1134516,54.1646007 34.002237,53.6352639 34.1829305,53.2081222 C34.2572345,53.0324819 34.2246662,52.6386805 34.438893,52.762136 C34.677727,52.8996041 35.2210139,52.521748 35.1841032,53.1926601 C35.1790371,53.2849497 35.3409134,53.3596029 35.4282446,53.2774603 C35.7983167,52.9300452 36.3616271,53.0592991 36.7010608,52.6251511 C36.7929757,52.5074939 36.7695748,52.2052573 37.0827127,52.3173578 C37.0028601,52.7473987 36.7082982,53.3315778 36.5215735,53.3769978 C35.9194224,53.5241297 35.9708079,54.0326893 35.7944567,54.4231084 C35.7512736,54.5187804 35.9691191,54.7623091 35.7100205,54.6992526 C35.5633426,54.6634964 35.3131701,54.9176554 35.2463448,54.5654084 C35.1997843,54.3189805 34.9973785,54.4525831 34.8663817,54.4064383 C34.487866,54.2730773 34.1600121,54.5791794 33.665457,54.5443896 M42.7734747,58.8051763 C43.0205111,58.7870566 43.2226756,59.0931587 43.4646457,58.7208593 C43.599985,58.5126035 43.3879294,59.1731269 43.733153,59.0322765 C43.7408729,59.0291357 43.76741,59.2547864 43.6909349,59.2228957 C43.3956493,59.0999233 42.9541683,59.3270236 42.7734747,58.8051763 M46.6160479,42.5873214 C47.6500301,42.5433509 47.2534209,41.7642039 47.3998575,41.1147939 C47.5783799,41.5192255 47.5366442,41.8212205 47.7771669,42.0106318 C47.9433857,42.1415768 47.9561718,42.3797904 47.9330121,42.6395061 C47.9141949,42.8535601 47.892724,42.9402931 47.7059992,43.0052824 C47.5658351,43.0540848 47.4080599,43.1135174 47.3033589,43.0330659 C47.1147042,42.88835 47.4722314,42.7622369 47.3569157,42.5870798 C47.1798408,42.621628 47.0162757,42.8069321 46.6160479,42.5873214 M37.6086299,35.1029195 C36.7965944,34.83354 36.8800656,35.4653135 36.8035905,36.0369296 C36.5466631,35.6752604 36.3570434,35.3674671 36.1420928,35.0881822 C35.8646594,34.727721 36.5476281,34.6390553 36.5734414,34.2616823 C36.5794726,34.171567 36.7961119,34.0621241 36.9328986,34.1548969 C37.007685,34.2056321 37.0479732,34.3235309 37.08995,34.4184781 C37.2079195,34.6839921 37.3495312,34.928004 37.6086299,35.1029195 M50.6315947,80.4959049 C50.9534174,79.9716416 51.4470076,80.1936683 51.8284183,80.0153704 C51.592238,80.677585 51.1131226,80.4840666 50.6315947,80.4959049 M54.4736854,68.1863481 C54.6321843,68.5513996 55.207557,68.2948247 55.2203431,68.8548442 C55.4746168,68.7973444 55.2726935,68.4460638 55.616711,68.3904967 C55.6198472,68.636683 55.7305793,68.8992979 55.5329984,69.093541 C55.3166004,69.3061455 55.1846386,69.031934 55.0263809,68.9321549 C54.8553372,68.8244031 54.8025043,68.8560522 54.8017805,69.0932994 C54.8010568,69.2498536 54.5993748,69.2583095 54.4789928,69.3117022 C54.4633118,69.3187085 54.3723619,69.189213 54.380323,69.1788244 C54.6124021,68.8705479 54.1685086,68.5315888 54.4736854,68.1863481 M56.8231844,81.145798 C57.0429599,81.061481 57.2815526,80.9486557 57.4574212,80.8392127 C57.7519831,80.6558414 58.4819948,80.9029941 58.2684917,80.065864 C58.2680092,79.8167786 58.3637841,79.7938269 58.6110617,79.718449 C59.010807,79.5966846 59.6235729,80.0359061 59.82236,79.2425049 C59.8517921,79.1241229 60.0414118,79.1463497 60.139599,79.2340491 C60.2315139,79.3164333 60.3270475,79.466706 60.1979807,79.5621364 C59.688227,79.9395093 59.620678,80.6850745 59.045064,81.0397374 C58.5618474,81.3376252 58.5840421,82.2182426 59.0165969,82.5231367 C59.2006679,82.6526322 59.452288,82.8476001 59.5975183,82.4528323 C59.6860558,82.2119611 59.7849668,82.2738097 59.906555,82.3818031 C60.0580578,82.5166136 60.0698788,82.6427267 59.9080025,82.8094279 C59.5569889,83.1708555 59.041204,83.0870217 58.6776457,82.5291766 C58.4706562,82.2117195 58.1686157,81.9768882 57.8909411,82.1013101 C57.5124254,82.2711521 57.3821523,82.0150604 57.1848128,81.8459432 C57.1102676,81.7824034 57.1469371,81.5623095 56.9580411,81.6579815 C56.8200482,81.7278027 56.7071448,81.6978448 56.6755415,81.5466058 C56.6439383,81.3944003 56.6924288,81.1958084 56.8231844,81.145798 M56.8936283,82.5434308 C56.8955583,82.5311094 56.9565936,82.350154 57.1867427,82.3535363 C57.3623701,82.3559523 57.4173743,82.4866557 57.4004871,82.6569809 C57.3792574,82.8744173 57.2769689,83.0159925 57.0625008,83.0283139 C56.8632313,83.0399105 56.8434491,82.9029256 56.8936283,82.5434308 M63.8794012,75.5917481 C64.0820482,75.3453202 64.4885485,75.2745326 64.6634521,74.9121386 C64.6677946,74.9029579 64.8569318,74.9582834 64.9196558,75.0264135 C64.9973372,75.1107305 64.9647689,75.2868539 64.8723715,75.2999001 C64.5220817,75.3487025 64.4953034,75.7258338 64.2904851,75.9159699 C64.1906091,76.0087427 64.0873556,76.07494 63.9635962,76.0051188 C63.8311519,75.9304656 63.8620315,75.7888904 63.8794012,75.5917481 M3.0047243,48.6975253 C2.8493616,50.9883383 2.80014732,53.2670716 3.71350631,55.4281477 C3.99576464,56.0961605 4.45365036,56.7494361 4.44906668,57.5145705 C4.43917558,59.0747974 4.84688205,60.5052872 5.32961615,61.9280459 C5.58943856,62.6946299 5.8603583,63.4435775 6.23646149,64.1625671 C6.54019074,64.7431222 6.57348275,65.4415762 6.45285954,66.1796519 C6.13755045,68.106863 5.68593713,69.9973516 4.94868804,71.7803299 C4.3161399,73.3096325 3.43631416,74.7229689 2.9943507,76.3486683 C2.98904328,76.367996 2.9304204,76.3711367 2.89736964,76.3817669 C2.7683028,76.2479228 2.94272397,76.0075348 2.74321317,75.8562957 C2.57747687,76.2993827 2.51041036,76.7286987 2.51354656,77.1628467 C2.51813025,77.7849564 2.41680675,78.5587883 2.07664928,78.8646488 C1.62865466,79.2673893 1.66532411,79.600067 1.68100513,80.0566834 C1.69716864,80.5280371 1.44482488,80.6340978 0.997312746,80.4992872 C1.64771312,81.0689705 1.28729096,81.8046303 1.26943872,82.4120026 C1.19368734,84.9958716 1.11286979,87.5763582 1.24290161,90.1556369 C1.2942871,91.1742055 1.30996812,92.1976061 1.29549333,93.2190739 C1.29066841,93.5667305 1.58088786,93.8107425 1.43083258,94.2156573 C1.1425431,94.9935964 1.3722097,95.8162307 1.36280109,96.613739 C1.34929129,97.7605951 1.34253639,98.8791845 0.914082727,100.048751 C0.966915696,100.624957 1.25592892,101.149704 1.35749367,101.71842 C1.36473106,101.760217 0.00144747859,102.155709 0,102.193157 C0.189378448,102.949594 -0.276950903,104.009475 0.56644662,104.127374 C0.687069836,104.144286 0.929763745,105.403001 0.991522831,105.578158 C1.36883225,106.649636 2.00258662,107.341567 3.05007863,107.501745 C4.9380732,107.790694 4.87293666,109.799564 6.67552999,110.350886 C7.15657538,110.49826 8.98474083,117.302569 9.45854882,117.47072 C9.87469891,117.618577 11.3627069,123.027911 11.6415878,122.88247 C11.7274715,123.190263 11.1487213,122.784865 11.6415878,122.88247 C12.638418,123.080579 14.1684029,108.400965 14.2779288,107.269813 C14.3917971,106.095415 14.4270191,104.914252 14.5133853,103.737196 C14.7360557,100.707583 14.9124069,97.673379 15.222891,94.6519797 C15.3560591,93.3548508 15.6190177,92.0598964 15.8149098,90.7627676 C16.3263522,87.3763167 16.7287513,83.972471 17.3661243,80.6065558 C17.6821572,78.9359196 18.1233969,77.2913758 18.50336,75.6357185 C18.8027468,74.3320666 18.8565448,72.9544864 18.8104667,71.5984081 C18.8095017,71.5766645 18.7993694,71.5532297 18.8046768,71.533902 C19.3460338,69.5938863 18.1624788,67.9701197 18.0724939,66.1417213 C18.0213496,65.1040666 17.8708119,64.0746262 17.7692471,63.040837 C17.7296827,62.6368885 17.8580258,62.5776975 18.2256854,62.6852077 C20.380981,63.3160148 22.5302454,63.9830613 24.7132844,64.4940368 C26.3783673,64.8834895 28.1085867,64.805454 29.8180589,64.815601 C29.8877791,64.8160842 29.9587055,64.7738049 30.1003172,64.7288681 C29.8552108,64.5191628 29.65956,64.3517367 29.4330296,64.1582184 C29.7632959,64.0859812 29.959188,64.2070207 30.1215469,64.4447512 C30.2269716,64.5993726 30.364482,64.7962733 30.5632691,64.6861056 C30.8132004,64.5474295 31.0018551,64.1096576 31.314028,64.5657908 C32.1887876,63.9448891 32.9470251,64.7078492 33.7532707,64.7945822 C36.2178442,65.0593714 38.6291023,65.1598753 40.9349357,63.8269903 C41.9211511,63.2568238 42.9027828,63.6134194 43.8769359,63.8591225 C44.140377,63.925803 44.0887503,64.1927666 44.1587117,64.3802451 C45.2718228,67.3704785 45.657817,70.5916777 46.504592,73.6601882 C46.8143524,74.7831263 47.386589,75.8736906 47.8451984,76.9756098 C48.2632785,77.9789579 48.6258719,79.0115392 49.0683178,80.0013579 C50.1088137,82.3293767 50.9420789,84.7634562 52.0443338,87.0607924 C52.1837742,87.351674 52.3277984,87.4920412 52.5950994,87.5389108 C52.8435832,86.8515703 52.958899,86.0770136 53.7335413,85.8030437 C53.8300399,85.7689787 53.8626082,85.7037478 53.8396897,85.608559 C53.7342651,85.1705455 53.8688806,85.1623312 54.1926333,85.3324148 C54.3508909,85.4155238 54.382253,85.149285 54.4843002,85.0623105 C54.6271181,84.9410293 54.7957494,84.9506931 54.9248162,85.0852621 C55.0500231,85.2157239 55.0097349,85.3408706 54.8838043,85.47399 C54.5035999,85.8762473 54.2488437,86.3855316 53.8334173,86.7754675 C53.4701002,87.1161179 53.3087064,87.7268725 53.0332029,88.1076278 C52.3367245,89.0699046 52.755287,90.2815084 52.1343187,91.2387117 C53.3193212,90.5559614 54.5697014,90.1437987 55.7325092,89.498979 C57.1795053,88.6966388 58.4911622,87.6215367 60.0112559,86.9672947 C60.7637036,86.6433145 61.5171162,86.327307 62.290311,86.0675913 C62.6003126,85.9634635 62.9901669,85.8624763 62.5667794,85.3901562 C62.4181716,85.2244214 62.4931992,85.0226887 62.608515,84.8545379 C62.7839012,84.597963 63.0012642,84.406619 62.9841357,84.005328 C62.9708672,83.6924613 63.3004098,83.9077233 63.4835158,83.8468411 C63.5160841,84.1551176 63.1865415,84.3024911 63.249748,84.6271961 C63.436714,85.5865737 63.5447924,85.6510799 64.4456066,85.380734 C65.750991,84.9891069 67.0604767,84.6122171 68.3762347,84.2686677 C68.7554741,84.1696133 68.8874359,84.0715253 68.8608988,83.5941317 C68.7004699,80.7068181 68.5176051,77.8228869 68.9212104,74.9138298 C68.999133,74.3526023 69.3072047,73.7949988 69.1298885,73.1690236 C68.9549849,72.5517459 68.8054121,71.9296362 68.5446247,71.3469067 C68.2652613,70.7223811 67.7709474,70.3203654 67.307513,69.8811439 C67.0083674,69.5977518 66.6667625,69.332721 66.4595318,68.9790245 C66.1820984,68.5059796 65.8817466,68.5704857 65.4815188,68.7306639 C64.8347371,68.9896548 64.1703444,69.1938034 63.520909,69.4455464 C63.2082537,69.5668275 63.0309375,69.4817858 62.8000647,69.2235197 C61.2838309,67.5265495 60.2312727,65.5184037 59.3924589,63.3522542 C59.1893294,62.8275077 59.1488,62.8465938 58.6414587,62.7567201 C58.7476071,62.567792 59.0424103,62.8200182 59.0366204,62.6322982 C59.026488,62.3155658 58.9128609,61.9898944 58.6986341,61.7540968 C58.5430302,61.5832884 58.3128811,61.5487402 58.0981717,61.4844757 C57.2127973,61.2192033 56.8711924,60.5144678 57.1406647,59.5335881 C57.5469237,58.0557455 57.8612678,56.5631656 57.9030034,55.0217832 C57.9119295,54.6854816 57.8955247,54.3547367 57.6943252,54.0967122 C56.8600951,53.0281332 56.6644442,51.7319708 56.6627555,50.3860396 C56.660343,48.5368639 56.6892926,46.6864803 56.7397131,44.8365799 C56.7684214,43.7723496 57.2205172,42.8076569 57.5261765,41.8120399 C58.1174715,39.8857951 58.5302441,37.9124392 58.6788519,35.9100917 C58.9876473,31.7500505 60.4696242,28.056048 62.4570123,24.5173917 C63.943814,21.869983 65.4282033,19.2288557 67.16952,16.7563625 C67.8679285,15.7650942 68.0963888,14.5194253 68.3038608,13.3177269 C68.5697143,11.7790021 68.9759733,10.2649201 69.1561844,8.71363233 C68.3620012,8.60950446 67.5704716,8.48894807 66.785697,8.32128046 C66.4424033,8.24807688 66.093561,8.16617584 65.7444774,8.07195341 C65.7295201,8.10770962 65.7116679,8.14274103 65.6885082,8.17608128 C65.620718,8.27247807 65.5225307,8.34978879 65.4197597,8.39617521 C65.3862264,8.41115417 65.3502807,8.41791885 65.3177124,8.43507217 C65.3181949,8.43483057 65.3186774,8.43458898 65.3194012,8.43434738 C65.2491985,8.4688956 65.1734471,8.48556573 65.0962482,8.48000902 C64.6373975,8.74069108 64.164072,8.8718777 63.6832679,9.00161474 C63.1935376,9.13376774 62.556647,8.95329554 62.2970659,9.69233764 C62.2451979,9.83995279 62.1127536,9.83149693 62.0070877,9.70610861 C61.9146903,9.59690723 61.7745261,9.65948059 61.7610163,9.74838791 C61.6871949,10.2378614 61.3236365,10.1458133 61.0389657,10.2098362 C60.7641861,10.2716848 60.3663707,10.2192585 60.2336852,10.3982811 C59.7709745,11.0235315 59.0800447,10.9645821 58.5053957,11.1967558 C57.7391971,11.5062403 56.9073794,11.6060194 56.1069237,11.8186239 C54.8690883,12.1471944 53.6823971,12.5194938 52.5478151,13.2251956 C51.3466491,13.9726936 50.0767279,14.6322506 48.6806348,14.8912415 C48.4323922,14.9371448 48.1831847,14.8086157 47.9274635,15.0139723 C46.5412615,16.1267634 45.1268336,17.1979999 43.7447328,18.3165893 C43.1208696,18.8215249 42.4528582,19.1247279 41.6914845,19.2242654 C41.1913806,19.2894963 40.6977904,19.4322795 40.1976866,19.486397 C38.8377804,19.6328042 37.4974153,20.2399349 36.1061471,19.7683395 C35.8501846,19.681365 35.6738335,19.5827938 35.5799886,19.3245277 C35.2820493,18.5047926 34.9534717,17.6964124 34.6970267,16.8609735 C33.8297458,14.0357502 33.0189165,11.1890247 32.0828804,8.38989372 C32.0252225,8.21787738 32.005199,8.04634424 31.8266767,8.00503132 C31.0129524,7.81755284 30.4387859,7.1952016 29.7739108,6.73616924 C26.5091228,4.48183716 23.0412054,2.5746785 19.8955932,0.116681011 C19.6063387,-0.109694421 19.5247974,0.0103787804 19.4007967,0.330010261 C17.2413999,5.90507907 15.2614905,11.556009 13.0355097,17.1030527 C12.1011622,19.4313132 11.3668081,21.8499305 10.0592524,24.0020675 C9.15771452,25.48595 8.29429354,27.0060719 7.49552661,28.5486622 C5.78412443,31.853212 4.81431378,35.4520257 4.28984404,39.1573833 C3.84040194,42.3341288 3.22232858,45.492513 3.0047243,48.6975253" id="Fill-1"></path>
            </g>
        </g>
    </g>
</svg>