<?xml version="1.0" encoding="UTF-8"?>
<svg width="53px" height="30px" viewBox="0 0 53 30" version="1.1" xmlns="http://www.w3.org/2000/svg" xmlns:xlink="http://www.w3.org/1999/xlink">
    <!-- Generator: Sketch 46.2 (44496) - http://www.bohemiancoding.com/sketch -->
    <title>Fill 1</title>
    <desc>Created with Sketch.</desc>
    <defs></defs>
    <g id="Page-1" stroke="none" stroke-width="1" fill="none" fill-rule="evenodd">
        <g id="Desktop-HD" transform="translate(-1161.000000, -89.000000)" fill="#FFFFFF">
            <path d="M1161,91.1783331 C1161.3027,90.6884194 1161.75336,90.4544082 1162.31801,90.4211937 C1162.59128,90.4053414 1162.86454,90.3796756 1163.13781,90.3781659 C1165.36242,90.3645781 1167.58779,90.3562745 1169.81316,90.3441965 C1170.9568,90.3381575 1171.70865,90.8439236 1172.21668,91.9030129 C1173.54602,94.6756678 1174.92366,97.4249215 1176.3383,100.155303 C1176.92937,101.294409 1177.68877,102.340666 1178.71314,103.153666 C1178.95092,103.342385 1179.21966,103.511477 1179.50122,103.620933 C1180.13456,103.868532 1180.61467,103.659432 1180.9453,103.06912 C1181.43899,102.188181 1181.47749,101.205334 1181.58996,100.240604 C1181.85115,98.000891 1181.81869,95.7732556 1181.3635,93.553169 C1181.09175,92.2253444 1180.2878,91.5127426 1179.00376,91.2500462 C1178.34853,91.1156785 1178.3055,90.9473414 1178.76673,90.4491241 C1179.30722,89.8640962 1179.96849,89.4783552 1180.75432,89.3613496 C1183.71569,88.918993 1186.68386,88.8563384 1189.64825,89.3213413 C1191.11195,89.5508232 1191.66377,90.0558344 1191.79511,91.7844975 C1191.89551,93.1100576 1191.7853,94.45147 1191.7702,95.7860885 C1191.74982,97.5660831 1191.70755,99.3453229 1191.72642,101.125317 C1191.73171,101.643916 1191.84569,102.185916 1192.02837,102.673566 C1192.42091,103.719822 1193.2256,103.873062 1194.07333,103.171028 C1195.45852,102.022864 1196.38249,100.520663 1197.33288,99.0380888 C1198.77695,96.7870524 1199.9538,94.3978739 1200.95099,91.9173555 C1201.48167,90.5963247 1201.7187,90.455918 1203.12126,90.4453497 C1205.8773,90.4242132 1208.6326,90.3789208 1211.38789,90.3638233 C1211.80911,90.3615586 1212.24694,90.4098706 1212.64928,90.5291408 C1213.43435,90.7608874 1213.6812,91.2055086 1213.54004,92.0094502 C1213.32263,93.2489545 1212.74968,94.3518265 1212.04765,95.3580745 C1210.25633,97.9246486 1208.39557,100.440646 1206.56801,102.981554 C1206.15887,103.549975 1205.73765,104.115376 1205.38739,104.719276 C1204.78802,105.7527 1204.88238,106.674402 1205.715,107.533449 C1206.91903,108.773708 1208.17967,109.957352 1209.39955,111.181004 C1210.73039,112.516377 1212.00236,113.903837 1212.9686,115.537386 C1213.16562,115.870286 1213.32716,116.23791 1213.43133,116.610063 C1213.80122,117.937888 1213.15958,118.655773 1211.8695,118.784102 C1210.71454,118.899598 1209.54599,118.876952 1208.38273,118.906392 C1206.87676,118.94489 1205.37154,118.998487 1203.86556,118.999996 C1202.58605,119.001506 1201.42354,118.536503 1200.47995,117.716709 C1199.43822,116.812369 1198.51727,115.767623 1197.54651,114.782511 C1196.83843,114.06387 1196.14244,113.335416 1195.42455,112.628099 C1195.23281,112.440135 1194.98899,112.293689 1194.74818,112.16989 C1194.11183,111.843029 1193.64456,111.915497 1193.11011,112.398617 C1192.17708,113.241057 1191.95364,114.381673 1191.81248,115.547199 C1191.75133,116.05523 1191.75586,116.572319 1191.72265,117.084124 C1191.65471,118.128871 1191.15649,118.723712 1190.12005,118.809013 C1185.60288,119.176637 1181.32123,118.639166 1177.43966,115.955587 C1174.85875,114.171063 1172.76699,111.983436 1170.90698,109.500653 C1166.93407,104.199167 1163.87305,98.3881417 1161.20835,92.3506536 C1161.14116,92.1981689 1161.06945,92.0479488 1161,91.8969739 L1161,91.1783331 Z" id="Fill-1"></path>
        </g>
    </g>
</svg>